<svg xmlns="http://www.w3.org/2000/svg" xmlns:xlink="http://www.w3.org/1999/xlink" contentStyleType="text/css" data-diagram-type="DESCRIPTION" height="337px" preserveAspectRatio="none" style="width:725px;height:337px;background:#FFFFFF;" version="1.1" viewBox="0 0 725 337" width="725px" zoomAndPan="magnify"><defs/><g><!--entity ==Component, application--><g class="entity" data-entity="..Component. application" data-source-line="23" data-uid="ent0002" id="entity_..Component. application"><rect fill="#85BBF0" height="57.6875" rx="2.5" ry="2.5" style="stroke:#5D82A8;stroke-width:0.5;" width="118.7813" x="7" y="15"/><text fill="#000000" font-family="sans-serif" font-size="16" font-weight="bold" lengthAdjust="spacing" textLength="98.7813" x="17" y="40.4688">Component,</text><text fill="#000000" font-family="sans-serif" font-size="16" font-weight="bold" lengthAdjust="spacing" textLength="91.3516" x="20.7148" y="59.3125">application</text></g><!--entity ==Component, library--><g class="entity" data-entity="..Component. library" data-source-line="30" data-uid="ent0003" id="entity_..Component. library"><path d="M163.5,6 L204.5,6 A3.75,3.75 0 0 1 207,8.5 L214,27 L287.2813,27 A2.5,2.5 0 0 1 289.7813,29.5 L289.7813,79.1875 A2.5,2.5 0 0 1 287.2813,81.6875 L163.5,81.6875 A2.5,2.5 0 0 1 161,79.1875 L161,8.5 A2.5,2.5 0 0 1 163.5,6" fill="#E67E22" style="stroke:#A15817;stroke-width:0.5;"/><line style="stroke:#A15817;stroke-width:0.5;" x1="161" x2="214" y1="27" y2="27"/><text fill="#FFFFFF" font-family="sans-serif" font-size="16" font-weight="bold" lengthAdjust="spacing" textLength="98.7813" x="171" y="49.4688">Component,</text><text fill="#FFFFFF" font-family="sans-serif" font-size="16" font-weight="bold" lengthAdjust="spacing" textLength="54.2891" x="193.2461" y="68.3125">library</text></g><!--entity ==Component, service--><g class="entity" data-entity="..Component. service" data-source-line="37" data-uid="ent0004" id="entity_..Component. service"><polygon fill="#FACC2E" points="522.17,43.85,472.78,20,374,20,324.61,43.85,374,67.69,472.78,67.69,522.17,43.85" style="stroke:#AF8E20;stroke-width:0.5;"/><text fill="#000000" font-family="sans-serif" font-size="16" font-weight="bold" lengthAdjust="spacing" textLength="98.7813" x="374.0006" y="40.4688">Component,</text><text fill="#000000" font-family="sans-serif" font-size="16" font-weight="bold" lengthAdjust="spacing" textLength="58.2813" x="394.2506" y="59.3125">service</text></g><!--entity ==Component, service, router--><g class="entity" data-entity="..Component. service. router" data-source-line="44" data-uid="ent0005" id="entity_..Component. service. router"><path d="M12,142.69 L120.7813,142.69 C125.7813,142.69 125.7813,175.9556 125.7813,175.9556 C125.7813,175.9556 125.7813,209.2213 120.7813,209.2213 L12,209.2213 C7,209.2213 7,175.9556 7,175.9556 C7,175.9556 7,142.69 12,142.69" fill="#FACC2E" style="stroke:#AF8E20;stroke-width:0.5;"/><path d="M120.7813,142.69 C115.7813,142.69 115.7813,175.9556 115.7813,175.9556 C115.7813,209.2213 120.7813,209.2213 120.7813,209.2213" fill="none" style="stroke:#AF8E20;stroke-width:0.5;"/><text fill="#000000" font-family="sans-serif" font-size="16" font-weight="bold" lengthAdjust="spacing" textLength="98.7813" x="12" y="163.1588">Component,</text><text fill="#000000" font-family="sans-serif" font-size="16" font-weight="bold" lengthAdjust="spacing" textLength="62.2344" x="30.2734" y="182.0025">service,</text><text fill="#000000" font-family="sans-serif" font-size="16" font-weight="bold" lengthAdjust="spacing" textLength="51.1328" x="35.8242" y="200.8463">router</text></g><!--entity ==Container, external--><g class="entity" data-entity="..Container. external" data-source-line="52" data-uid="ent0006" id="entity_..Container. external"><rect fill="#999999" height="57.6875" rx="10" ry="10" style="stroke:#6B6B6B;stroke-width:0.5;" width="104.3281" x="161.23" y="147.11"/><text fill="#FFFFFF" font-family="sans-serif" font-size="16" font-weight="bold" lengthAdjust="spacing" textLength="84.3281" x="171.23" y="172.5788">Container,</text><text fill="#FFFFFF" font-family="sans-serif" font-size="16" font-weight="bold" lengthAdjust="spacing" textLength="67.0781" x="179.855" y="191.4225">external</text></g><!--entity ==Container, router, external--><g class="entity" data-entity="..Container. router. external" data-source-line="59" data-uid="ent0007" id="entity_..Container. router. external"><path d="M305.23,142.69 L399.5581,142.69 C404.5581,142.69 404.5581,175.9556 404.5581,175.9556 C404.5581,175.9556 404.5581,209.2213 399.5581,209.2213 L305.23,209.2213 C300.23,209.2213 300.23,175.9556 300.23,175.9556 C300.23,175.9556 300.23,142.69 305.23,142.69" fill="#999999" style="stroke:#6B6B6B;stroke-width:0.5;"/><path d="M399.5581,142.69 C394.5581,142.69 394.5581,175.9556 394.5581,175.9556 C394.5581,209.2213 399.5581,209.2213 399.5581,209.2213" fill="none" style="stroke:#6B6B6B;stroke-width:0.5;"/><text fill="#FFFFFF" font-family="sans-serif" font-size="16" font-weight="bold" lengthAdjust="spacing" textLength="84.3281" x="305.23" y="163.1588">Container,</text><text fill="#FFFFFF" font-family="sans-serif" font-size="16" font-weight="bold" lengthAdjust="spacing" textLength="55.0859" x="319.8511" y="182.0025">router,</text><text fill="#FFFFFF" font-family="sans-serif" font-size="16" font-weight="bold" lengthAdjust="spacing" textLength="67.0781" x="313.855" y="200.8463">external</text></g><!--entity ==Person--><g class="entity" data-entity="..Person" data-source-line="66" data-uid="ent0008" id="entity_..Person"><ellipse cx="66.3872" cy="281.6476" fill="#08427B" rx="11.4276" ry="11.4276" style="stroke:#052E56;stroke-width:0.5;"/><rect fill="#08427B" height="38.8438" rx="11.4276" ry="11.4276" style="stroke:#052E56;stroke-width:0.5;" width="76.2344" x="28.27" y="293.0752"/><text fill="#FFFFFF" font-family="sans-serif" font-size="16" font-weight="bold" lengthAdjust="spacing" textLength="56.2344" x="38.27" y="318.544">Person</text></g><!--entity 8--><g class="entity" data-entity="8" data-source-line="68" data-uid="ent0009" id="entity_8"><rect fill="none" height="36.4883" rx="2.5" ry="2.5" style="stroke:none;stroke-width:0.5;" width="24.4297" x="557.18" y="25.6"/></g><!--link 8 to 8--><g class="link" data-entity-1="8" data-entity-2="8" data-source-line="69" data-uid="lnk10" id="link_8_8"><path d="M581.96,34.86 C597.78,27.64 616.61,30.63 616.61,43.85 C616.61,57.06 603.2384,62.5411 587.4184,55.3211" fill="none" id="8-to-8" style="stroke:#707070;stroke-width:2;stroke-dasharray:7,7;"/><polygon fill="#707070" points="581.96,52.83,588.4869,60.2056,586.5087,54.9059,591.8084,52.9278,581.96,52.83" style="stroke:#707070;stroke-width:2;"/><text fill="#707070" font-family="sans-serif" font-size="15" lengthAdjust="spacing" textLength="89.6631" x="622.61" y="49.852">Relationship</text></g><!--SRC=[hPHDYzim48Rl_XKYkOPWQ-EFBawWNUYjKDf23wMKiJssHHp9bPGcsxB_lIDvkyHk33ci1CQUiTvvD3EIGSiCzg31AisaaXW4PY-ainpOdu0nqqAbJa8sh8RE85b0QtLwhwJzB7uZYs8oLLZ3iRDVy6pVTgAH1vIMbVH0JTwJXlwhg6pBeZ2axmESFw0nqE2WGCQde1KLCaCBKDd7VeIXiRGWcmxp_8VL80sPINktyu3lbAvGFwYEDd3XTHuezurMHrbTyxeT_6z_cWaS_OisqLncSL7KuKXl6VenOLl6LSOXemWlicontJweGqzfbtR5eEyxKO8LIYwO3ta9KwkEjFASpv5WaYBdOvBQZoa9H74MfKGoQ4umEb5eq8yEWOyHMZn3esIUtyqnr52M76_91jGPSb_uGNG2OL3_4YKwYBinnCyZ7gaWcrT4y9BN0LQCjAah7SXc37BH7V4Sp1i_Rgb9KhX9rkVbMb9XFDsaNQG5GRuLeyE6MaBdqEAhEKfU3MkKenU28JLZacHCqgCshcFIEPGms_2qk0KbZ3d62Q4CcexbetzpOLCNzY9JQsUSt1PWM1PaRFrjcOPkhcmhohsagsZBlwztB6FtR96NBjhzyo-xJzZv0sbQqI-2u2y0]--></g></svg>