<svg xmlns="http://www.w3.org/2000/svg" xmlns:xlink="http://www.w3.org/1999/xlink" contentStyleType="text/css" data-diagram-type="DESCRIPTION" height="333px" preserveAspectRatio="none" style="width:705px;height:333px;background:#FFFFFF;" version="1.1" viewBox="0 0 705 333" width="705px" zoomAndPan="magnify"><defs/><g><!--entity ==Component, api--><g class="entity" data-entity="..Component. api" data-source-line="23" data-uid="ent0002" id="entity_..Component. api"><rect fill="#6DB33F" height="67.6875" rx="2.5" ry="2.5" style="stroke:#4C7D2C;stroke-width:0.5;" width="138.7813" x="45.39" y="10"/><rect fill="#6DB33F" height="10" style="stroke:#4C7D2C;stroke-width:0.5;" width="15" x="164.1713" y="15"/><rect fill="#6DB33F" height="2" style="stroke:#4C7D2C;stroke-width:0.5;" width="4" x="162.1713" y="17"/><rect fill="#6DB33F" height="2" style="stroke:#4C7D2C;stroke-width:0.5;" width="4" x="162.1713" y="21"/><text fill="#FFFFFF" font-family="sans-serif" font-size="16" font-weight="bold" lengthAdjust="spacing" textLength="98.7813" x="60.39" y="45.4688">Component,</text><text fill="#FFFFFF" font-family="sans-serif" font-size="16" font-weight="bold" lengthAdjust="spacing" textLength="25.2109" x="97.1752" y="64.3125">api</text></g><!--entity ==Component, interface--><g class="entity" data-entity="..Component. interface" data-source-line="30" data-uid="ent0003" id="entity_..Component. interface"><rect fill="#6DB33F" height="57.6875" rx="35" ry="35" style="stroke:#4C7D2C;stroke-width:0.5;" width="118.7813" x="219.39" y="15"/><text fill="#FFFFFF" font-family="sans-serif" font-size="16" font-weight="bold" lengthAdjust="spacing" textLength="98.7813" x="229.39" y="40.4688">Component,</text><text fill="#FFFFFF" font-family="sans-serif" font-size="16" font-weight="bold" lengthAdjust="spacing" textLength="72.7734" x="242.3939" y="59.3125">interface</text></g><!--entity ==Component, library--><g class="entity" data-entity="..Component. library" data-source-line="37" data-uid="ent0004" id="entity_..Component. library"><path d="M375.89,6 L416.89,6 A3.75,3.75 0 0 1 419.39,8.5 L426.39,27 L499.6713,27 A2.5,2.5 0 0 1 502.1713,29.5 L502.1713,79.1875 A2.5,2.5 0 0 1 499.6713,81.6875 L375.89,81.6875 A2.5,2.5 0 0 1 373.39,79.1875 L373.39,8.5 A2.5,2.5 0 0 1 375.89,6" fill="#E67E22" style="stroke:#A15817;stroke-width:0.5;"/><line style="stroke:#A15817;stroke-width:0.5;" x1="373.39" x2="426.39" y1="27" y2="27"/><text fill="#FFFFFF" font-family="sans-serif" font-size="16" font-weight="bold" lengthAdjust="spacing" textLength="98.7813" x="383.39" y="49.4688">Component,</text><text fill="#FFFFFF" font-family="sans-serif" font-size="16" font-weight="bold" lengthAdjust="spacing" textLength="54.2891" x="405.6361" y="68.3125">library</text></g><!--entity ==Component, service--><g class="entity" data-entity="..Component. service" data-source-line="44" data-uid="ent0005" id="entity_..Component. service"><polygon fill="#FACC2E" points="213.56,175.96,164.17,152.11,65.39,152.11,16,175.96,65.39,199.8,164.17,199.8,213.56,175.96" style="stroke:#AF8E20;stroke-width:0.5;"/><text fill="#000000" font-family="sans-serif" font-size="16" font-weight="bold" lengthAdjust="spacing" textLength="98.7813" x="65.3906" y="172.5788">Component,</text><text fill="#000000" font-family="sans-serif" font-size="16" font-weight="bold" lengthAdjust="spacing" textLength="58.2813" x="85.6406" y="191.4225">service</text></g><!--entity ==Component, service, router--><g class="entity" data-entity="..Component. service. router" data-source-line="51" data-uid="ent0006" id="entity_..Component. service. router"><path d="M253.39,142.69 L362.1713,142.69 C367.1713,142.69 367.1713,175.9556 367.1713,175.9556 C367.1713,175.9556 367.1713,209.2213 362.1713,209.2213 L253.39,209.2213 C248.39,209.2213 248.39,175.9556 248.39,175.9556 C248.39,175.9556 248.39,142.69 253.39,142.69" fill="#FACC2E" style="stroke:#AF8E20;stroke-width:0.5;"/><path d="M362.1713,142.69 C357.1713,142.69 357.1713,175.9556 357.1713,175.9556 C357.1713,209.2213 362.1713,209.2213 362.1713,209.2213" fill="none" style="stroke:#AF8E20;stroke-width:0.5;"/><text fill="#000000" font-family="sans-serif" font-size="16" font-weight="bold" lengthAdjust="spacing" textLength="98.7813" x="253.39" y="163.1588">Component,</text><text fill="#000000" font-family="sans-serif" font-size="16" font-weight="bold" lengthAdjust="spacing" textLength="62.2344" x="271.6634" y="182.0025">service,</text><text fill="#000000" font-family="sans-serif" font-size="16" font-weight="bold" lengthAdjust="spacing" textLength="51.1328" x="277.2142" y="200.8463">router</text></g><!--entity ==Container, router, external--><g class="entity" data-entity="..Container. router. external" data-source-line="58" data-uid="ent0007" id="entity_..Container. router. external"><path d="M407.62,142.69 L501.9481,142.69 C506.9481,142.69 506.9481,175.9556 506.9481,175.9556 C506.9481,175.9556 506.9481,209.2213 501.9481,209.2213 L407.62,209.2213 C402.62,209.2213 402.62,175.9556 402.62,175.9556 C402.62,175.9556 402.62,142.69 407.62,142.69" fill="#999999" style="stroke:#6B6B6B;stroke-width:0.5;"/><path d="M501.9481,142.69 C496.9481,142.69 496.9481,175.9556 496.9481,175.9556 C496.9481,209.2213 501.9481,209.2213 501.9481,209.2213" fill="none" style="stroke:#6B6B6B;stroke-width:0.5;"/><text fill="#FFFFFF" font-family="sans-serif" font-size="16" font-weight="bold" lengthAdjust="spacing" textLength="84.3281" x="407.62" y="163.1588">Container,</text><text fill="#FFFFFF" font-family="sans-serif" font-size="16" font-weight="bold" lengthAdjust="spacing" textLength="55.0859" x="422.2411" y="182.0025">router,</text><text fill="#FFFFFF" font-family="sans-serif" font-size="16" font-weight="bold" lengthAdjust="spacing" textLength="67.0781" x="416.245" y="200.8463">external</text></g><!--entity ==Container, ui, external--><g class="entity" data-entity="..Container. ui. external" data-source-line="65" data-uid="ent0008" id="entity_..Container. ui. external"><rect fill="#999999" height="57.6875" rx="2.5" ry="2.5" style="stroke:#6B6B6B;stroke-width:0.5;" width="112.0156" x="58.77" y="270.22"/><text fill="#FFFFFF" font-family="sans-serif" font-size="16" font-weight="bold" lengthAdjust="spacing" textLength="84.3281" x="72.6138" y="295.6888">Container,</text><text fill="#FFFFFF" font-family="sans-serif" font-size="16" font-weight="bold" lengthAdjust="spacing" textLength="19.6641" x="68.77" y="314.5325">ui,</text><text fill="#FFFFFF" font-family="sans-serif" font-size="16" font-weight="bold" lengthAdjust="spacing" textLength="5.2734" x="88.4341" y="314.5325">&#160;</text><text fill="#FFFFFF" font-family="sans-serif" font-size="16" font-weight="bold" lengthAdjust="spacing" textLength="67.0781" x="93.7075" y="314.5325">external</text></g><!--entity 8--><g class="entity" data-entity="8" data-source-line="67" data-uid="ent0009" id="entity_8"><rect fill="none" height="36.4883" rx="2.5" ry="2.5" style="stroke:none;stroke-width:0.5;" width="24.4297" x="537.57" y="25.6"/></g><!--link 8 to 8--><g class="link" data-entity-1="8" data-entity-2="8" data-source-line="68" data-uid="lnk10" id="link_8_8"><path d="M562.35,34.87 C578.17,27.64 597,30.63 597,43.85 C597,57.06 583.6271,62.554 567.8071,55.324" fill="none" id="8-to-8" style="stroke:#707070;stroke-width:2;stroke-dasharray:7,7;"/><polygon fill="#707070" points="562.35,52.83,568.873,60.2091,566.8976,54.9083,572.1983,52.9329,562.35,52.83" style="stroke:#707070;stroke-width:2;"/><text fill="#707070" font-family="sans-serif" font-size="15" lengthAdjust="spacing" textLength="89.6631" x="603" y="49.852">Relationship</text></g><!--SRC=[hTHHRvim40VmTpx5ANcDea0Io2edqbffRtlP9krXcgeB7625sDGsIxgfttrdqbH04waFCL8apl3t3r_0aWDBDHfqse3IYeB0xgJobJty2m1iYPa-I5L0ZfKbhg0n-l15A_TT_YK8brpAACUcSZ_ew3vNib1xKWvI_Y73imU3zK-PkHB2sOpFztZyIjPYGQS4Bhu4fSm8BDz0sZtNFOQXrA4gAXBYqHbKbikSlTcqm7jjCZ8Fkk87wCpw6KntXT6DoYxD-YTuNt_fBfpgVSrRefmGuNcrGUOuphRpUTxB6-Vj6DZ6YpJ9efHNU8k5qNhzS3wP0DPo1ErINOJbpl1M2H7TaF0QEW18tx0SK_ACgC_8TSKvGiolAIXEA8e-ei1mkGeJLfmo1uXARWsQPq-Ozmab7R7GIeZ5DGFRquZwXbaxtXdo5KNj_-uKEa1OCd_aQHyMVSHJGmqtOtb3GXjv6J01pkQcUCZo8YI-1ldKZe_q8zxwemzH3gKYSrv_0lngar5OUKdSbtJUp-I6chVOWQYHVKtYDPsBfxuu-52WXLMmWkclSJBpnyILCjqf_Wgjez_J3QpW3aOYzOAxrqistwX29xMofQn7GV0V]--></g></svg>