<svg xmlns="http://www.w3.org/2000/svg" xmlns:xlink="http://www.w3.org/1999/xlink" contentStyleType="text/css" data-diagram-type="DESCRIPTION" height="345px" preserveAspectRatio="none" style="width:657px;height:345px;background:#FFFFFF;" version="1.1" viewBox="0 0 657 345" width="657px" zoomAndPan="magnify"><defs/><g><!--entity ==Component, api--><g class="entity" data-entity="..Component. api" data-source-line="23" data-uid="ent0002" id="entity_..Component. api"><rect fill="#6DB33F" height="67.6875" rx="2.5" ry="2.5" style="stroke:#4C7D2C;stroke-width:0.5;" width="138.7813" x="7" y="7"/><rect fill="#6DB33F" height="10" style="stroke:#4C7D2C;stroke-width:0.5;" width="15" x="125.7813" y="12"/><rect fill="#6DB33F" height="2" style="stroke:#4C7D2C;stroke-width:0.5;" width="4" x="123.7813" y="14"/><rect fill="#6DB33F" height="2" style="stroke:#4C7D2C;stroke-width:0.5;" width="4" x="123.7813" y="18"/><text fill="#FFFFFF" font-family="sans-serif" font-size="16" font-weight="bold" lengthAdjust="spacing" textLength="98.7813" x="22" y="42.4688">Component,</text><text fill="#FFFFFF" font-family="sans-serif" font-size="16" font-weight="bold" lengthAdjust="spacing" textLength="25.2109" x="58.7852" y="61.3125">api</text></g><!--entity ==Component, application--><g class="entity" data-entity="..Component. application" data-source-line="30" data-uid="ent0003" id="entity_..Component. application"><rect fill="#85BBF0" height="57.6875" rx="2.5" ry="2.5" style="stroke:#5D82A8;stroke-width:0.5;" width="118.7813" x="181" y="12"/><text fill="#000000" font-family="sans-serif" font-size="16" font-weight="bold" lengthAdjust="spacing" textLength="98.7813" x="191" y="37.4688">Component,</text><text fill="#000000" font-family="sans-serif" font-size="16" font-weight="bold" lengthAdjust="spacing" textLength="91.3516" x="194.7148" y="56.3125">application</text></g><!--entity ==Component, interface--><g class="entity" data-entity="..Component. interface" data-source-line="37" data-uid="ent0004" id="entity_..Component. interface"><rect fill="#6DB33F" height="57.6875" rx="35" ry="35" style="stroke:#4C7D2C;stroke-width:0.5;" width="118.7813" x="335" y="12"/><text fill="#FFFFFF" font-family="sans-serif" font-size="16" font-weight="bold" lengthAdjust="spacing" textLength="98.7813" x="345" y="37.4688">Component,</text><text fill="#FFFFFF" font-family="sans-serif" font-size="16" font-weight="bold" lengthAdjust="spacing" textLength="72.7734" x="358.0039" y="56.3125">interface</text></g><!--entity ==Component, library--><g class="entity" data-entity="..Component. library" data-source-line="44" data-uid="ent0005" id="entity_..Component. library"><path d="M14.5,135.69 L55.5,135.69 A3.75,3.75 0 0 1 58,138.19 L65,156.69 L138.2813,156.69 A2.5,2.5 0 0 1 140.7813,159.19 L140.7813,208.8775 A2.5,2.5 0 0 1 138.2813,211.3775 L14.5,211.3775 A2.5,2.5 0 0 1 12,208.8775 L12,138.19 A2.5,2.5 0 0 1 14.5,135.69" fill="#E67E22" style="stroke:#A15817;stroke-width:0.5;"/><line style="stroke:#A15817;stroke-width:0.5;" x1="12" x2="65" y1="156.69" y2="156.69"/><text fill="#FFFFFF" font-family="sans-serif" font-size="16" font-weight="bold" lengthAdjust="spacing" textLength="98.7813" x="22" y="179.1588">Component,</text><text fill="#FFFFFF" font-family="sans-serif" font-size="16" font-weight="bold" lengthAdjust="spacing" textLength="54.2891" x="44.2461" y="198.0025">library</text></g><!--entity ==Component, service--><g class="entity" data-entity="..Component. service" data-source-line="51" data-uid="ent0006" id="entity_..Component. service"><polygon fill="#FACC2E" points="373.17,173.54,323.78,149.69,225,149.69,175.61,173.54,225,197.38,323.78,197.38,373.17,173.54" style="stroke:#AF8E20;stroke-width:0.5;"/><text fill="#000000" font-family="sans-serif" font-size="16" font-weight="bold" lengthAdjust="spacing" textLength="98.7813" x="225.0006" y="170.1588">Component,</text><text fill="#000000" font-family="sans-serif" font-size="16" font-weight="bold" lengthAdjust="spacing" textLength="58.2813" x="245.2506" y="189.0025">service</text></g><!--entity ==Component, service, router--><g class="entity" data-entity="..Component. service. router" data-source-line="58" data-uid="ent0007" id="entity_..Component. service. router"><path d="M413,140.27 L521.7813,140.27 C526.7813,140.27 526.7813,173.5356 526.7813,173.5356 C526.7813,173.5356 526.7813,206.8013 521.7813,206.8013 L413,206.8013 C408,206.8013 408,173.5356 408,173.5356 C408,173.5356 408,140.27 413,140.27" fill="#FACC2E" style="stroke:#AF8E20;stroke-width:0.5;"/><path d="M521.7813,140.27 C516.7813,140.27 516.7813,173.5356 516.7813,173.5356 C516.7813,206.8013 521.7813,206.8013 521.7813,206.8013" fill="none" style="stroke:#AF8E20;stroke-width:0.5;"/><text fill="#000000" font-family="sans-serif" font-size="16" font-weight="bold" lengthAdjust="spacing" textLength="98.7813" x="413" y="160.7388">Component,</text><text fill="#000000" font-family="sans-serif" font-size="16" font-weight="bold" lengthAdjust="spacing" textLength="62.2344" x="431.2734" y="179.5825">service,</text><text fill="#000000" font-family="sans-serif" font-size="16" font-weight="bold" lengthAdjust="spacing" textLength="51.1328" x="436.8242" y="198.4263">router</text></g><!--entity ==Container, external--><g class="entity" data-entity="..Container. external" data-source-line="66" data-uid="ent0008" id="entity_..Container. external"><rect fill="#999999" height="57.6875" rx="10" ry="10" style="stroke:#6B6B6B;stroke-width:0.5;" width="104.3281" x="24.23" y="276.8"/><text fill="#FFFFFF" font-family="sans-serif" font-size="16" font-weight="bold" lengthAdjust="spacing" textLength="84.3281" x="34.23" y="302.2688">Container,</text><text fill="#FFFFFF" font-family="sans-serif" font-size="16" font-weight="bold" lengthAdjust="spacing" textLength="67.0781" x="42.855" y="321.1125">external</text></g><!--entity ==Container, router, external--><g class="entity" data-entity="..Container. router. external" data-source-line="73" data-uid="ent0009" id="entity_..Container. router. external"><path d="M168.23,272.38 L262.5581,272.38 C267.5581,272.38 267.5581,305.6456 267.5581,305.6456 C267.5581,305.6456 267.5581,338.9113 262.5581,338.9113 L168.23,338.9113 C163.23,338.9113 163.23,305.6456 163.23,305.6456 C163.23,305.6456 163.23,272.38 168.23,272.38" fill="#999999" style="stroke:#6B6B6B;stroke-width:0.5;"/><path d="M262.5581,272.38 C257.5581,272.38 257.5581,305.6456 257.5581,305.6456 C257.5581,338.9113 262.5581,338.9113 262.5581,338.9113" fill="none" style="stroke:#6B6B6B;stroke-width:0.5;"/><text fill="#FFFFFF" font-family="sans-serif" font-size="16" font-weight="bold" lengthAdjust="spacing" textLength="84.3281" x="168.23" y="292.8488">Container,</text><text fill="#FFFFFF" font-family="sans-serif" font-size="16" font-weight="bold" lengthAdjust="spacing" textLength="55.0859" x="182.8511" y="311.6925">router,</text><text fill="#FFFFFF" font-family="sans-serif" font-size="16" font-weight="bold" lengthAdjust="spacing" textLength="67.0781" x="176.855" y="330.5363">external</text></g><!--entity ==Container, ui, external--><g class="entity" data-entity="..Container. ui. external" data-source-line="80" data-uid="ent0010" id="entity_..Container. ui. external"><rect fill="#999999" height="57.6875" rx="2.5" ry="2.5" style="stroke:#6B6B6B;stroke-width:0.5;" width="112.0156" x="302.38" y="276.8"/><text fill="#FFFFFF" font-family="sans-serif" font-size="16" font-weight="bold" lengthAdjust="spacing" textLength="84.3281" x="316.2238" y="302.2688">Container,</text><text fill="#FFFFFF" font-family="sans-serif" font-size="16" font-weight="bold" lengthAdjust="spacing" textLength="19.6641" x="312.38" y="321.1125">ui,</text><text fill="#FFFFFF" font-family="sans-serif" font-size="16" font-weight="bold" lengthAdjust="spacing" textLength="5.2734" x="332.0441" y="321.1125">&#160;</text><text fill="#FFFFFF" font-family="sans-serif" font-size="16" font-weight="bold" lengthAdjust="spacing" textLength="67.0781" x="337.3175" y="321.1125">external</text></g><!--entity 10--><g class="entity" data-entity="10" data-source-line="82" data-uid="ent0011" id="entity_10"><rect fill="none" height="36.4883" rx="2.5" ry="2.5" style="stroke:none;stroke-width:0.5;" width="24.4297" x="489.18" y="22.6"/></g><!--link 10 to 10--><g class="link" data-entity-1="10" data-entity-2="10" data-source-line="83" data-uid="lnk12" id="link_10_10"><path d="M513.96,32.39 C529.78,25.59 548.61,28.41 548.61,40.85 C548.61,53.29 535.2911,58.4823 519.4711,51.6723" fill="none" id="10-to-10" style="stroke:#707070;stroke-width:2;stroke-dasharray:7,7;"/><polygon fill="#707070" points="513.96,49.3,520.6451,56.5326,518.5526,51.277,523.8082,49.1845,513.96,49.3" style="stroke:#707070;stroke-width:2;"/><text fill="#707070" font-family="sans-serif" font-size="15" lengthAdjust="spacing" textLength="89.6631" x="554.61" y="46.852">Relationship</text></g><!--SRC=[hPJ1Zjem48RlUGeBhWWbWP2mCaZjIhtrqbRgeQggmPaa5i5ERLFOLllk7GSMaIoHE61BaJnZ__DvnXcBZbbim83JXYcjC0ZiLYflsR5_0MEsWbmVf2fP0RL5ie0n-l19A_TL_aKM9MJAiO1zxRxXqNsePQbsg1mJz453teE1vhlCNSMYCAJr3ewVqLeeyQH0njUWaZaoImTGkvUcWs5GE51bZPp_SWQK9JDfhzSju4TjSZJFkgOBN7cz1yIsD7glybjUVuFtzjVhm4Bl6ag9Sfn7Rz5wckD5lfdDYexUk6X7Zsqy5saU2ufmaMMZrUhvRJ5XqCWHQqCDt3uUWiYIpQO8kn1XE_eGIPx5a174HVOTH5DB0KvgvM7YBeobPq9rutpsm7oSHNiWqh-U0WHwZ5aNez0rwN0-7wB0HOfnV0y5H4aMfKHnqkn1r79ZmBnuX7aNeS8Zb5fndWmn4Bk8yPwYG95XtFu49z4UX4NpHvxoa7GXVkznJyLOF12XbRmDC66aJKNn88l1HveEmIpRSKzD5Xi_oNe-RXGLfgNhlLhbG99lmgZne55GUxJqPewoXs5rSdGXEAMcIv8D9cdvG9gXdEnbbsRfQQusJxsnrr31KZiEef1DVupJqC-9gwJOAkhNg_ZdT4rkziH6N7Y8f_EUzHUisuvXAzcCWk0_]--></g></svg>