<svg xmlns="http://www.w3.org/2000/svg" xmlns:xlink="http://www.w3.org/1999/xlink" contentStyleType="text/css" data-diagram-type="DESCRIPTION" height="337px" preserveAspectRatio="none" style="width:859px;height:337px;background:#FFFFFF;" version="1.1" viewBox="0 0 859 337" width="859px" zoomAndPan="magnify"><defs/><g><!--entity ==Component, api--><g class="entity" data-entity="..Component. api" data-source-line="23" data-uid="ent0002" id="entity_..Component. api"><rect fill="#6DB33F" height="67.6875" rx="2.5" ry="2.5" style="stroke:#4C7D2C;stroke-width:0.5;" width="138.7813" x="45.39" y="10"/><rect fill="#6DB33F" height="10" style="stroke:#4C7D2C;stroke-width:0.5;" width="15" x="164.1713" y="15"/><rect fill="#6DB33F" height="2" style="stroke:#4C7D2C;stroke-width:0.5;" width="4" x="162.1713" y="17"/><rect fill="#6DB33F" height="2" style="stroke:#4C7D2C;stroke-width:0.5;" width="4" x="162.1713" y="21"/><text fill="#FFFFFF" font-family="sans-serif" font-size="16" font-weight="bold" lengthAdjust="spacing" textLength="98.7813" x="60.39" y="45.4688">Component,</text><text fill="#FFFFFF" font-family="sans-serif" font-size="16" font-weight="bold" lengthAdjust="spacing" textLength="25.2109" x="97.1752" y="64.3125">api</text></g><!--entity ==Component, application--><g class="entity" data-entity="..Component. application" data-source-line="30" data-uid="ent0003" id="entity_..Component. application"><rect fill="#85BBF0" height="57.6875" rx="2.5" ry="2.5" style="stroke:#5D82A8;stroke-width:0.5;" width="118.7813" x="219.39" y="15"/><text fill="#000000" font-family="sans-serif" font-size="16" font-weight="bold" lengthAdjust="spacing" textLength="98.7813" x="229.39" y="40.4688">Component,</text><text fill="#000000" font-family="sans-serif" font-size="16" font-weight="bold" lengthAdjust="spacing" textLength="91.3516" x="233.1048" y="59.3125">application</text></g><!--entity ==Component, interface--><g class="entity" data-entity="..Component. interface" data-source-line="37" data-uid="ent0004" id="entity_..Component. interface"><rect fill="#6DB33F" height="57.6875" rx="35" ry="35" style="stroke:#4C7D2C;stroke-width:0.5;" width="118.7813" x="373.39" y="15"/><text fill="#FFFFFF" font-family="sans-serif" font-size="16" font-weight="bold" lengthAdjust="spacing" textLength="98.7813" x="383.39" y="40.4688">Component,</text><text fill="#FFFFFF" font-family="sans-serif" font-size="16" font-weight="bold" lengthAdjust="spacing" textLength="72.7734" x="396.3939" y="59.3125">interface</text></g><!--entity ==Component, library--><g class="entity" data-entity="..Component. library" data-source-line="44" data-uid="ent0005" id="entity_..Component. library"><path d="M529.89,6 L570.89,6 A3.75,3.75 0 0 1 573.39,8.5 L580.39,27 L653.6713,27 A2.5,2.5 0 0 1 656.1713,29.5 L656.1713,79.1875 A2.5,2.5 0 0 1 653.6713,81.6875 L529.89,81.6875 A2.5,2.5 0 0 1 527.39,79.1875 L527.39,8.5 A2.5,2.5 0 0 1 529.89,6" fill="#E67E22" style="stroke:#A15817;stroke-width:0.5;"/><line style="stroke:#A15817;stroke-width:0.5;" x1="527.39" x2="580.39" y1="27" y2="27"/><text fill="#FFFFFF" font-family="sans-serif" font-size="16" font-weight="bold" lengthAdjust="spacing" textLength="98.7813" x="537.39" y="49.4688">Component,</text><text fill="#FFFFFF" font-family="sans-serif" font-size="16" font-weight="bold" lengthAdjust="spacing" textLength="54.2891" x="559.6361" y="68.3125">library</text></g><!--entity ==Component, service--><g class="entity" data-entity="..Component. service" data-source-line="51" data-uid="ent0006" id="entity_..Component. service"><polygon fill="#FACC2E" points="213.56,175.96,164.17,152.11,65.39,152.11,16,175.96,65.39,199.8,164.17,199.8,213.56,175.96" style="stroke:#AF8E20;stroke-width:0.5;"/><text fill="#000000" font-family="sans-serif" font-size="16" font-weight="bold" lengthAdjust="spacing" textLength="98.7813" x="65.3906" y="172.5788">Component,</text><text fill="#000000" font-family="sans-serif" font-size="16" font-weight="bold" lengthAdjust="spacing" textLength="58.2813" x="85.6406" y="191.4225">service</text></g><!--entity ==Component, service, router--><g class="entity" data-entity="..Component. service. router" data-source-line="58" data-uid="ent0007" id="entity_..Component. service. router"><path d="M253.39,142.69 L362.1713,142.69 C367.1713,142.69 367.1713,175.9556 367.1713,175.9556 C367.1713,175.9556 367.1713,209.2213 362.1713,209.2213 L253.39,209.2213 C248.39,209.2213 248.39,175.9556 248.39,175.9556 C248.39,175.9556 248.39,142.69 253.39,142.69" fill="#FACC2E" style="stroke:#AF8E20;stroke-width:0.5;"/><path d="M362.1713,142.69 C357.1713,142.69 357.1713,175.9556 357.1713,175.9556 C357.1713,209.2213 362.1713,209.2213 362.1713,209.2213" fill="none" style="stroke:#AF8E20;stroke-width:0.5;"/><text fill="#000000" font-family="sans-serif" font-size="16" font-weight="bold" lengthAdjust="spacing" textLength="98.7813" x="253.39" y="163.1588">Component,</text><text fill="#000000" font-family="sans-serif" font-size="16" font-weight="bold" lengthAdjust="spacing" textLength="62.2344" x="271.6634" y="182.0025">service,</text><text fill="#000000" font-family="sans-serif" font-size="16" font-weight="bold" lengthAdjust="spacing" textLength="51.1328" x="277.2142" y="200.8463">router</text></g><!--entity ==Container, external--><g class="entity" data-entity="..Container. external" data-source-line="66" data-uid="ent0008" id="entity_..Container. external"><rect fill="#999999" height="57.6875" rx="10" ry="10" style="stroke:#6B6B6B;stroke-width:0.5;" width="104.3281" x="402.62" y="147.11"/><text fill="#FFFFFF" font-family="sans-serif" font-size="16" font-weight="bold" lengthAdjust="spacing" textLength="84.3281" x="412.62" y="172.5788">Container,</text><text fill="#FFFFFF" font-family="sans-serif" font-size="16" font-weight="bold" lengthAdjust="spacing" textLength="67.0781" x="421.245" y="191.4225">external</text></g><!--entity ==Container, router, external--><g class="entity" data-entity="..Container. router. external" data-source-line="73" data-uid="ent0009" id="entity_..Container. router. external"><path d="M546.62,142.69 L640.9481,142.69 C645.9481,142.69 645.9481,175.9556 645.9481,175.9556 C645.9481,175.9556 645.9481,209.2213 640.9481,209.2213 L546.62,209.2213 C541.62,209.2213 541.62,175.9556 541.62,175.9556 C541.62,175.9556 541.62,142.69 546.62,142.69" fill="#999999" style="stroke:#6B6B6B;stroke-width:0.5;"/><path d="M640.9481,142.69 C635.9481,142.69 635.9481,175.9556 635.9481,175.9556 C635.9481,209.2213 640.9481,209.2213 640.9481,209.2213" fill="none" style="stroke:#6B6B6B;stroke-width:0.5;"/><text fill="#FFFFFF" font-family="sans-serif" font-size="16" font-weight="bold" lengthAdjust="spacing" textLength="84.3281" x="546.62" y="163.1588">Container,</text><text fill="#FFFFFF" font-family="sans-serif" font-size="16" font-weight="bold" lengthAdjust="spacing" textLength="55.0859" x="561.2411" y="182.0025">router,</text><text fill="#FFFFFF" font-family="sans-serif" font-size="16" font-weight="bold" lengthAdjust="spacing" textLength="67.0781" x="555.245" y="200.8463">external</text></g><!--entity ==Container, ui, external--><g class="entity" data-entity="..Container. ui. external" data-source-line="80" data-uid="ent0010" id="entity_..Container. ui. external"><rect fill="#999999" height="57.6875" rx="2.5" ry="2.5" style="stroke:#6B6B6B;stroke-width:0.5;" width="112.0156" x="58.77" y="272.23"/><text fill="#FFFFFF" font-family="sans-serif" font-size="16" font-weight="bold" lengthAdjust="spacing" textLength="84.3281" x="72.6138" y="297.6988">Container,</text><text fill="#FFFFFF" font-family="sans-serif" font-size="16" font-weight="bold" lengthAdjust="spacing" textLength="19.6641" x="68.77" y="316.5425">ui,</text><text fill="#FFFFFF" font-family="sans-serif" font-size="16" font-weight="bold" lengthAdjust="spacing" textLength="5.2734" x="88.4341" y="316.5425">&#160;</text><text fill="#FFFFFF" font-family="sans-serif" font-size="16" font-weight="bold" lengthAdjust="spacing" textLength="67.0781" x="93.7075" y="316.5425">external</text></g><!--entity ==Person--><g class="entity" data-entity="..Person" data-source-line="87" data-uid="ent0011" id="entity_..Person"><ellipse cx="243.7772" cy="281.6476" fill="#08427B" rx="11.4276" ry="11.4276" style="stroke:#052E56;stroke-width:0.5;"/><rect fill="#08427B" height="38.8438" rx="11.4276" ry="11.4276" style="stroke:#052E56;stroke-width:0.5;" width="76.2344" x="205.66" y="293.0752"/><text fill="#FFFFFF" font-family="sans-serif" font-size="16" font-weight="bold" lengthAdjust="spacing" textLength="56.2344" x="215.66" y="318.544">Person</text></g><!--entity 11--><g class="entity" data-entity="11" data-source-line="89" data-uid="ent0012" id="entity_11"><rect fill="none" height="36.4883" rx="2.5" ry="2.5" style="stroke:none;stroke-width:0.5;" width="24.4297" x="691.57" y="25.6"/></g><!--link 11 to 11--><g class="link" data-entity-1="11" data-entity-2="11" data-source-line="90" data-uid="lnk13" id="link_11_11"><path d="M716.35,34.86 C732.17,27.64 751,30.63 751,43.85 C751,57.06 737.6284,62.5411 721.8084,55.3211" fill="none" id="11-to-11" style="stroke:#707070;stroke-width:2;stroke-dasharray:7,7;"/><polygon fill="#707070" points="716.35,52.83,722.8769,60.2056,720.8987,54.9059,726.1984,52.9278,716.35,52.83" style="stroke:#707070;stroke-width:2;"/><text fill="#707070" font-family="sans-serif" font-size="15" lengthAdjust="spacing" textLength="89.6631" x="757" y="49.852">Relationship</text></g><!--SRC=[hPNVYvj04CVV_IkMv3K4DV573XFe7VIjKDf27yfHHXrrYTdrTZTDhkN-zyvgBaGlGXwo2w8pxdS-EpEk6WtJs8028nKJKg3Zw2qNrh9Z_np6T0MvF71HiW9gZMG1fUJXinJcE_-Bp0l8b6C1-zhymAFvLFDIx50Obj455NaF2fgVF3SLyroNddTm_89QGucT0XdVd8hdo3GjG6bUcnw6mio0A6jCajz6WT1a9ktDfWLyb2f7zIHhsi25rteWsvPAxaL-pMjtyD7-TXauaxk6KY9CadZlqGQQqp1F5ukYfpSjsZ5WcowpAFSpYd2MPPFr-kdzOSQWuHFMXXhPlJy64GTfMhXz2BSTGuWWZts82U8i-m6YgNa6XajXOVm-ZAOseReboUAE-JY93a2uxPu2ChGOYpv68MlIIPBb60M64Vh-BHJW1R4N4KMdEO2eUQf0lLg4PH-XmYEKKYH9CCP0x9cFjnG5YXZzzYFeH0SG6jKVtkKXw4Eyx75FnGZlYD1ANWUOCTAcebYGSBH9ep6OLJjkgKcOsadMqt8bg30jtQ1hXG5ElXcZWmULWDgYHLTp5DyDgvUZCq6NcZv9F9garHrfndAovtsQLP-cGQLj_thk68iRB_qelON53NmCGcBfH2t8r_QkFSzS6_Y2ScwjWvCSDFCyn_FO_DSqSksScOfdMq4_YhN_FD-GcpsmIPBPY0-dTpRVi6wFAbtnPk8u_m40]--></g></svg>