<svg xmlns="http://www.w3.org/2000/svg" xmlns:xlink="http://www.w3.org/1999/xlink" contentStyleType="text/css" data-diagram-type="DESCRIPTION" height="343px" preserveAspectRatio="none" style="width:705px;height:343px;background:#FFFFFF;" version="1.1" viewBox="0 0 705 343" width="705px" zoomAndPan="magnify"><defs/><g><!--entity ==Component, api--><g class="entity" data-entity="..Component. api" data-source-line="23" data-uid="ent0002" id="entity_..Component. api"><rect fill="#6DB33F" height="67.6875" rx="2.5" ry="2.5" style="stroke:#4C7D2C;stroke-width:0.5;" width="138.7813" x="45.39" y="10"/><rect fill="#6DB33F" height="10" style="stroke:#4C7D2C;stroke-width:0.5;" width="15" x="164.1713" y="15"/><rect fill="#6DB33F" height="2" style="stroke:#4C7D2C;stroke-width:0.5;" width="4" x="162.1713" y="17"/><rect fill="#6DB33F" height="2" style="stroke:#4C7D2C;stroke-width:0.5;" width="4" x="162.1713" y="21"/><text fill="#FFFFFF" font-family="sans-serif" font-size="16" font-weight="bold" lengthAdjust="spacing" textLength="98.7813" x="60.39" y="45.4688">Component,</text><text fill="#FFFFFF" font-family="sans-serif" font-size="16" font-weight="bold" lengthAdjust="spacing" textLength="25.2109" x="97.1752" y="64.3125">api</text></g><!--entity ==Component, interface--><g class="entity" data-entity="..Component. interface" data-source-line="30" data-uid="ent0003" id="entity_..Component. interface"><rect fill="#6DB33F" height="57.6875" rx="35" ry="35" style="stroke:#4C7D2C;stroke-width:0.5;" width="118.7813" x="219.39" y="15"/><text fill="#FFFFFF" font-family="sans-serif" font-size="16" font-weight="bold" lengthAdjust="spacing" textLength="98.7813" x="229.39" y="40.4688">Component,</text><text fill="#FFFFFF" font-family="sans-serif" font-size="16" font-weight="bold" lengthAdjust="spacing" textLength="72.7734" x="242.3939" y="59.3125">interface</text></g><!--entity ==Component, library--><g class="entity" data-entity="..Component. library" data-source-line="37" data-uid="ent0004" id="entity_..Component. library"><path d="M375.89,6 L416.89,6 A3.75,3.75 0 0 1 419.39,8.5 L426.39,27 L499.6713,27 A2.5,2.5 0 0 1 502.1713,29.5 L502.1713,79.1875 A2.5,2.5 0 0 1 499.6713,81.6875 L375.89,81.6875 A2.5,2.5 0 0 1 373.39,79.1875 L373.39,8.5 A2.5,2.5 0 0 1 375.89,6" fill="#E67E22" style="stroke:#A15817;stroke-width:0.5;"/><line style="stroke:#A15817;stroke-width:0.5;" x1="373.39" x2="426.39" y1="27" y2="27"/><text fill="#FFFFFF" font-family="sans-serif" font-size="16" font-weight="bold" lengthAdjust="spacing" textLength="98.7813" x="383.39" y="49.4688">Component,</text><text fill="#FFFFFF" font-family="sans-serif" font-size="16" font-weight="bold" lengthAdjust="spacing" textLength="54.2891" x="405.6361" y="68.3125">library</text></g><!--entity ==Component, service--><g class="entity" data-entity="..Component. service" data-source-line="44" data-uid="ent0005" id="entity_..Component. service"><polygon fill="#FACC2E" points="213.56,175.95,164.17,152.11,65.39,152.11,16,175.95,65.39,199.8,164.17,199.8,213.56,175.95" style="stroke:#AF8E20;stroke-width:0.5;"/><text fill="#000000" font-family="sans-serif" font-size="16" font-weight="bold" lengthAdjust="spacing" textLength="98.7813" x="65.3906" y="172.5788">Component,</text><text fill="#000000" font-family="sans-serif" font-size="16" font-weight="bold" lengthAdjust="spacing" textLength="58.2813" x="85.6406" y="191.4225">service</text></g><!--entity ==Component, service, router--><g class="entity" data-entity="..Component. service. router" data-source-line="51" data-uid="ent0006" id="entity_..Component. service. router"><path d="M253.39,142.69 L362.1713,142.69 C367.1713,142.69 367.1713,175.9556 367.1713,175.9556 C367.1713,175.9556 367.1713,209.2213 362.1713,209.2213 L253.39,209.2213 C248.39,209.2213 248.39,175.9556 248.39,175.9556 C248.39,175.9556 248.39,142.69 253.39,142.69" fill="#FACC2E" style="stroke:#AF8E20;stroke-width:0.5;"/><path d="M362.1713,142.69 C357.1713,142.69 357.1713,175.9556 357.1713,175.9556 C357.1713,209.2213 362.1713,209.2213 362.1713,209.2213" fill="none" style="stroke:#AF8E20;stroke-width:0.5;"/><text fill="#000000" font-family="sans-serif" font-size="16" font-weight="bold" lengthAdjust="spacing" textLength="98.7813" x="253.39" y="163.1588">Component,</text><text fill="#000000" font-family="sans-serif" font-size="16" font-weight="bold" lengthAdjust="spacing" textLength="62.2344" x="271.6634" y="182.0025">service,</text><text fill="#000000" font-family="sans-serif" font-size="16" font-weight="bold" lengthAdjust="spacing" textLength="51.1328" x="277.2142" y="200.8463">router</text></g><!--entity ==Container, external--><g class="entity" data-entity="..Container. external" data-source-line="59" data-uid="ent0007" id="entity_..Container. external"><rect fill="#999999" height="57.6875" rx="10" ry="10" style="stroke:#6B6B6B;stroke-width:0.5;" width="104.3281" x="402.62" y="147.11"/><text fill="#FFFFFF" font-family="sans-serif" font-size="16" font-weight="bold" lengthAdjust="spacing" textLength="84.3281" x="412.62" y="172.5788">Container,</text><text fill="#FFFFFF" font-family="sans-serif" font-size="16" font-weight="bold" lengthAdjust="spacing" textLength="67.0781" x="421.245" y="191.4225">external</text></g><!--entity ==Container, router, external--><g class="entity" data-entity="..Container. router. external" data-source-line="66" data-uid="ent0008" id="entity_..Container. router. external"><path d="M67.62,270.22 L161.9481,270.22 C166.9481,270.22 166.9481,303.4856 166.9481,303.4856 C166.9481,303.4856 166.9481,336.7513 161.9481,336.7513 L67.62,336.7513 C62.62,336.7513 62.62,303.4856 62.62,303.4856 C62.62,303.4856 62.62,270.22 67.62,270.22" fill="#999999" style="stroke:#6B6B6B;stroke-width:0.5;"/><path d="M161.9481,270.22 C156.9481,270.22 156.9481,303.4856 156.9481,303.4856 C156.9481,336.7513 161.9481,336.7513 161.9481,336.7513" fill="none" style="stroke:#6B6B6B;stroke-width:0.5;"/><text fill="#FFFFFF" font-family="sans-serif" font-size="16" font-weight="bold" lengthAdjust="spacing" textLength="84.3281" x="67.62" y="290.6888">Container,</text><text fill="#FFFFFF" font-family="sans-serif" font-size="16" font-weight="bold" lengthAdjust="spacing" textLength="55.0859" x="82.2411" y="309.5325">router,</text><text fill="#FFFFFF" font-family="sans-serif" font-size="16" font-weight="bold" lengthAdjust="spacing" textLength="67.0781" x="76.245" y="328.3763">external</text></g><!--entity ==Container, ui, external--><g class="entity" data-entity="..Container. ui. external" data-source-line="73" data-uid="ent0009" id="entity_..Container. ui. external"><rect fill="#999999" height="57.6875" rx="2.5" ry="2.5" style="stroke:#6B6B6B;stroke-width:0.5;" width="112.0156" x="201.77" y="274.64"/><text fill="#FFFFFF" font-family="sans-serif" font-size="16" font-weight="bold" lengthAdjust="spacing" textLength="84.3281" x="215.6138" y="300.1088">Container,</text><text fill="#FFFFFF" font-family="sans-serif" font-size="16" font-weight="bold" lengthAdjust="spacing" textLength="19.6641" x="211.77" y="318.9525">ui,</text><text fill="#FFFFFF" font-family="sans-serif" font-size="16" font-weight="bold" lengthAdjust="spacing" textLength="5.2734" x="231.4341" y="318.9525">&#160;</text><text fill="#FFFFFF" font-family="sans-serif" font-size="16" font-weight="bold" lengthAdjust="spacing" textLength="67.0781" x="236.7075" y="318.9525">external</text></g><!--entity ==Person--><g class="entity" data-entity="..Person" data-source-line="80" data-uid="ent0010" id="entity_..Person"><ellipse cx="386.7772" cy="284.0576" fill="#08427B" rx="11.4276" ry="11.4276" style="stroke:#052E56;stroke-width:0.5;"/><rect fill="#08427B" height="38.8438" rx="11.4276" ry="11.4276" style="stroke:#052E56;stroke-width:0.5;" width="76.2344" x="348.66" y="295.4852"/><text fill="#FFFFFF" font-family="sans-serif" font-size="16" font-weight="bold" lengthAdjust="spacing" textLength="56.2344" x="358.66" y="320.954">Person</text></g><!--entity 10--><g class="entity" data-entity="10" data-source-line="82" data-uid="ent0011" id="entity_10"><rect fill="none" height="36.4883" rx="2.5" ry="2.5" style="stroke:none;stroke-width:0.5;" width="24.4297" x="537.57" y="25.6"/></g><!--link 10 to 10--><g class="link" data-entity-1="10" data-entity-2="10" data-source-line="83" data-uid="lnk12" id="link_10_10"><path d="M562.35,34.86 C578.17,27.63 597,30.63 597,43.84 C597,57.06 583.6284,62.5411 567.8084,55.3211" fill="none" id="10-to-10" style="stroke:#707070;stroke-width:2;stroke-dasharray:7,7;"/><polygon fill="#707070" points="562.35,52.83,568.8769,60.2056,566.8987,54.9059,572.1984,52.9278,562.35,52.83" style="stroke:#707070;stroke-width:2;"/><text fill="#707070" font-family="sans-serif" font-size="15" lengthAdjust="spacing" textLength="89.6631" x="603" y="49.842">Relationship</text></g><!--SRC=[hPJ1Zfim48RlF8MLNAC8I81avKJghjHRfQgjr4ErgXmOm0gnMTiqsLRxxXr3Di9ia7A8BI6OWNy-_sEimH0DDLFCI4M45E1vUi-5ZHp8FuyGNR9C7haeICug3HXXIidZPodCT_uNI11XA8ESDPNv0IVpgUA5E80m9CKBACmU5Qj_yioK9F1zV3wmqnVGcXNGAM3mpIjv1aJZ1o3DQ-rWA4WD4qK5bFusYWcDOTJURbl0HwaoK4-omWNqiZR3qdsXP2EoQrcxWe_njtxXL1vgj4GOIeFtQWFDQPpj5elSqPlcxHYmJPTfaeKfLhZ8aibcy_J-C2EivXFIbkf3QEmCMaLfU4U4i-W0WDk6vIm5Yn6w6BciK8VInHW5n0c4uIqKB8XMGO8KdUO0ek8xnTIhHLYu22MSM245fSin1cHFGt0P_7PyOCXN4BRxhXCTG6XGVtZdmzA5U6cWmMP4TqHe9Qy3p0XgOrCiIEI2zFwAU0nctOvRUXBlxCJe-NCbi34jtQLEHoWCuvYR4VpNGGbMMRJugaV9tR0SZou4dJKkIJ9gqkgED6EUDDobMRaqDIXjz-zw3CLVBSDaTmkA7uKGnOZIQLgEh-sTBRksPNkCSniS79rCuy7h1JwP_veclfqpK_9qB_1ateJFyoscoGEPqDGMV3Y_i_q65JDS2btoUk9v_m40]--></g></svg>