<svg xmlns="http://www.w3.org/2000/svg" xmlns:xlink="http://www.w3.org/1999/xlink" contentStyleType="text/css" data-diagram-type="SEQUENCE" height="425px" preserveAspectRatio="none" style="width:685px;height:425px;background:#FFFFFF;" version="1.1" viewBox="0 0 685 425" width="685px" zoomAndPan="magnify"><title>WhisperCMS-Installation-Sequence</title><defs/><g><text fill="#000000" font-family="sans-serif" font-size="14" font-weight="bold" lengthAdjust="spacing" textLength="255.8008" x="216.5898" y="28.5352">WhisperCMS-Installation-Sequence</text><g><title>su</title><rect fill="#000000" fill-opacity="0.00000" height="225.1738" width="8" x="14.5" y="118.9766"/><line style="stroke:#181818;stroke-width:0.5;stroke-dasharray:5,5;" x1="18" x2="18" y1="118.9766" y2="344.1504"/></g><g><title>RequestManager</title><rect fill="#000000" fill-opacity="0.00000" height="225.1738" width="8" x="162.5522" y="118.9766"/><line style="stroke:#181818;stroke-width:0.5;stroke-dasharray:5,5;" x1="166.1558" x2="166.1558" y1="118.9766" y2="344.1504"/></g><g><title>StartupManager</title><rect fill="#000000" fill-opacity="0.00000" height="225.1738" width="8" x="311.9629" y="118.9766"/><line style="stroke:#181818;stroke-width:0.5;stroke-dasharray:5,5;" x1="315.2427" x2="315.2427" y1="118.9766" y2="344.1504"/></g><g><title>ContentService</title><rect fill="#000000" fill-opacity="0.00000" height="225.1738" width="8" x="440.3169" y="118.9766"/><line style="stroke:#181818;stroke-width:0.5;stroke-dasharray:5,5;" x1="443.6831" x2="443.6831" y1="118.9766" y2="344.1504"/></g><g><title>Nginx</title><rect fill="#000000" fill-opacity="0.00000" height="225.1738" width="8" x="535.1475" y="118.9766"/><line style="stroke:#181818;stroke-width:0.5;stroke-dasharray:5,5;" x1="538.9507" x2="538.9507" y1="118.9766" y2="344.1504"/></g><g><title>admin</title><rect fill="#000000" fill-opacity="0.00000" height="225.1738" width="8" x="656.8062" y="118.9766"/><line style="stroke:#181818;stroke-width:0.5;stroke-dasharray:5,5;" x1="660.6318" x2="660.6318" y1="118.9766" y2="344.1504"/></g><g class="participant participant-head" data-participant="2"><text fill="#000000" font-family="sans-serif" font-size="14" lengthAdjust="spacing" textLength="15.8252" x="7.5874" y="116.0234">su</text><ellipse cx="18.5" cy="50.9883" fill="#E2E2F0" rx="8" ry="8" style="stroke:#181818;stroke-width:0.5;"/><path d="M18.5,58.9883 L18.5,85.9883 M5.5,66.9883 L31.5,66.9883 M18.5,85.9883 L5.5,100.9883 M18.5,85.9883 L31.5,100.9883" fill="none" style="stroke:#181818;stroke-width:0.5;"/></g><g class="participant participant-tail" data-participant="2"><text fill="#000000" font-family="sans-serif" font-size="14" lengthAdjust="spacing" textLength="15.8252" x="7.5874" y="356.6855">su</text><ellipse cx="18.5" cy="368.1387" fill="#E2E2F0" rx="8" ry="8" style="stroke:#181818;stroke-width:0.5;"/><path d="M18.5,376.1387 L18.5,403.1387 M5.5,384.1387 L31.5,384.1387 M18.5,403.1387 L5.5,418.1387 M18.5,403.1387 L31.5,418.1387" fill="none" style="stroke:#181818;stroke-width:0.5;"/></g><g class="participant participant-head" data-participant="11"><rect fill="#E2E2F0" height="30.4883" rx="2.5" ry="2.5" style="stroke:#181818;stroke-width:0.5;" width="126.793" x="103.1558" y="87.4883"/><text fill="#000000" font-family="sans-serif" font-size="14" lengthAdjust="spacing" textLength="112.793" x="110.1558" y="108.0234">RequestManager</text></g><g class="participant participant-tail" data-participant="11"><rect fill="#E2E2F0" height="30.4883" rx="2.5" ry="2.5" style="stroke:#181818;stroke-width:0.5;" width="126.793" x="103.1558" y="343.1504"/><text fill="#000000" font-family="sans-serif" font-size="14" lengthAdjust="spacing" textLength="112.793" x="110.1558" y="363.6855">RequestManager</text></g><g class="participant participant-head" data-participant="10"><rect fill="#E2E2F0" height="30.4883" rx="2.5" ry="2.5" style="stroke:#181818;stroke-width:0.5;" width="121.4404" x="255.2427" y="87.4883"/><text fill="#000000" font-family="sans-serif" font-size="14" lengthAdjust="spacing" textLength="107.4404" x="262.2427" y="108.0234">StartupManager</text></g><g class="participant participant-tail" data-participant="10"><rect fill="#E2E2F0" height="30.4883" rx="2.5" ry="2.5" style="stroke:#181818;stroke-width:0.5;" width="121.4404" x="255.2427" y="343.1504"/><text fill="#000000" font-family="sans-serif" font-size="14" lengthAdjust="spacing" textLength="107.4404" x="262.2427" y="363.6855">StartupManager</text></g><g class="participant participant-head" data-participant="8"><rect fill="#E2E2F0" height="30.4883" rx="2.5" ry="2.5" style="stroke:#181818;stroke-width:0.5;" width="115.2676" x="386.6831" y="87.4883"/><text fill="#000000" font-family="sans-serif" font-size="14" lengthAdjust="spacing" textLength="101.2676" x="393.6831" y="108.0234">ContentService</text></g><g class="participant participant-tail" data-participant="8"><rect fill="#E2E2F0" height="30.4883" rx="2.5" ry="2.5" style="stroke:#181818;stroke-width:0.5;" width="115.2676" x="386.6831" y="343.1504"/><text fill="#000000" font-family="sans-serif" font-size="14" lengthAdjust="spacing" textLength="101.2676" x="393.6831" y="363.6855">ContentService</text></g><g class="participant participant-head" data-participant="39"><rect fill="#E2E2F0" height="30.4883" rx="2.5" ry="2.5" style="stroke:#181818;stroke-width:0.5;" width="54.3936" x="511.9507" y="87.4883"/><text fill="#000000" font-family="sans-serif" font-size="14" lengthAdjust="spacing" textLength="40.3936" x="518.9507" y="108.0234">Nginx</text></g><g class="participant participant-tail" data-participant="39"><rect fill="#E2E2F0" height="30.4883" rx="2.5" ry="2.5" style="stroke:#181818;stroke-width:0.5;" width="54.3936" x="511.9507" y="343.1504"/><text fill="#000000" font-family="sans-serif" font-size="14" lengthAdjust="spacing" textLength="40.3936" x="518.9507" y="363.6855">Nginx</text></g><g class="participant participant-head" data-participant="1"><text fill="#000000" font-family="sans-serif" font-size="14" lengthAdjust="spacing" textLength="42.3486" x="636.6318" y="116.0234">admin</text><ellipse cx="660.8062" cy="50.9883" fill="#E2E2F0" rx="8" ry="8" style="stroke:#181818;stroke-width:0.5;"/><path d="M660.8062,58.9883 L660.8062,85.9883 M647.8062,66.9883 L673.8062,66.9883 M660.8062,85.9883 L647.8062,100.9883 M660.8062,85.9883 L673.8062,100.9883" fill="none" style="stroke:#181818;stroke-width:0.5;"/></g><g class="participant participant-tail" data-participant="1"><text fill="#000000" font-family="sans-serif" font-size="14" lengthAdjust="spacing" textLength="42.3486" x="636.6318" y="356.6855">admin</text><ellipse cx="660.8062" cy="368.1387" fill="#E2E2F0" rx="8" ry="8" style="stroke:#181818;stroke-width:0.5;"/><path d="M660.8062,376.1387 L660.8062,403.1387 M647.8062,384.1387 L673.8062,384.1387 M660.8062,403.1387 L647.8062,418.1387 M660.8062,403.1387 L673.8062,418.1387" fill="none" style="stroke:#181818;stroke-width:0.5;"/></g><g class="message" data-participant-1="2" data-participant-2="11"><polygon fill="#181818" points="154.5522,146.2871,164.5522,150.2871,154.5522,154.2871,158.5522,150.2871" style="stroke:#181818;stroke-width:1;"/><line style="stroke:#181818;stroke-width:1;" x1="18.5" x2="160.5522" y1="150.2871" y2="150.2871"/><text fill="#000000" font-family="sans-serif" font-size="13" lengthAdjust="spacing" textLength="111.2744" x="25.5" y="145.5449">(cli arg)-&gt;(Ready)</text></g><g class="message" data-participant-1="11" data-participant-2="10"><polygon fill="#181818" points="303.9629,175.5977,313.9629,179.5977,303.9629,183.5977,307.9629,179.5977" style="stroke:#181818;stroke-width:1;"/><line style="stroke:#181818;stroke-width:1;" x1="166.5522" x2="309.9629" y1="179.5977" y2="179.5977"/><text fill="#000000" font-family="sans-serif" font-size="13" lengthAdjust="spacing" textLength="124.1855" x="173.5522" y="174.8555">(cli arg)-&gt;(Settings)</text></g><g class="message" data-participant-1="11" data-participant-2="10"><polygon fill="#181818" points="303.9629,204.9082,313.9629,208.9082,303.9629,212.9082,307.9629,208.9082" style="stroke:#181818;stroke-width:1;"/><line style="stroke:#181818;stroke-width:1;" x1="166.5522" x2="309.9629" y1="208.9082" y2="208.9082"/><text fill="#000000" font-family="sans-serif" font-size="13" lengthAdjust="spacing" textLength="125.4106" x="173.5522" y="204.166">(Settings)-&gt;(Kernel)</text></g><g class="message" data-participant-1="11" data-participant-2="8"><polygon fill="#181818" points="432.3169,234.2188,442.3169,238.2188,432.3169,242.2188,436.3169,238.2188" style="stroke:#181818;stroke-width:1;"/><line style="stroke:#181818;stroke-width:1;" x1="166.5522" x2="438.3169" y1="238.2188" y2="238.2188"/><text fill="#000000" font-family="sans-serif" font-size="13" lengthAdjust="spacing" textLength="112.4995" x="173.5522" y="233.4766">(Kernel)-&gt;(Ready)</text></g><g class="message" data-participant-1="11" data-participant-2="2"><polygon fill="#181818" points="29.5,263.5293,19.5,267.5293,29.5,271.5293,25.5,267.5293" style="stroke:#181818;stroke-width:1;"/><line style="stroke:#181818;stroke-width:1;" x1="23.5" x2="165.5522" y1="267.5293" y2="267.5293"/><text fill="#000000" font-family="sans-serif" font-size="13" lengthAdjust="spacing" textLength="124.0522" x="35.5" y="262.7871">successfully started</text></g><g class="message" data-participant-1="11" data-participant-2="39"><polygon fill="#181818" points="527.1475,292.8398,537.1475,296.8398,527.1475,300.8398,531.1475,296.8398" style="stroke:#181818;stroke-width:1;"/><line style="stroke:#181818;stroke-width:1;" x1="166.5522" x2="533.1475" y1="296.8398" y2="296.8398"/><text fill="#000000" font-family="sans-serif" font-size="13" lengthAdjust="spacing" textLength="47.2266" x="173.5522" y="292.0977">303 - /</text></g><g class="message" data-participant-1="39" data-participant-2="1"><polygon fill="#181818" points="648.8062,322.1504,658.8062,326.1504,648.8062,330.1504,652.8062,326.1504" style="stroke:#181818;stroke-width:1;"/><line style="stroke:#181818;stroke-width:1;" x1="539.1475" x2="654.8062" y1="326.1504" y2="326.1504"/><text fill="#000000" font-family="sans-serif" font-size="13" lengthAdjust="spacing" textLength="97.6587" x="546.1475" y="321.4082">proxy response</text></g><!--SRC=[NOynRiCm34LtdOBmb0n67Nj9EcJ9L1Jf40-T2Pbr1QYqAb95VFjARbB06VdVmoUfJZt1-wUJGF5qxkiN5aNlKTt4TK_VYTYICMXrYb19gW05MXCmghCk82jKbwA9df5nfBWOkzrQwJLFAQoKPgsS9bPYxId-E4kBibyRRwFZwmAwm_qY7BuS__KPqq9zpAlX6JRMEy0uRklZva8up5kJyqAR1zgJgkDHri9_cerNYap-plS5twB7yZOpITQIo4VoVWOfRzDmmzqXywxfe8OdauUoBISXJjSP8acOMEWN]--></g></svg>