<svg xmlns="http://www.w3.org/2000/svg" xmlns:xlink="http://www.w3.org/1999/xlink" contentStyleType="text/css" data-diagram-type="ACTIVITY" height="1985px" preserveAspectRatio="none" style="width:1439px;height:1985px;background:#FFFFFF;" version="1.1" viewBox="0 0 1439 1985" width="1439px" zoomAndPan="magnify"><defs/><g><rect fill="none" height="21.1992" style="stroke:none;stroke-width:1;" width="1406.2549" x="15" y="12.2969"/><ellipse cx="166.7412" cy="48.4961" fill="#222222" rx="10" ry="10" style="stroke:#222222;stroke-width:1;"/><path d="M241.9492,82.9072 L241.9492,91.5625 L221.9492,95.5625 L241.9492,99.5625 L241.9492,108.2178 A0,0 0 0 0 241.9492,108.2178 L372.7202,108.2178 A0,0 0 0 0 372.7202,108.2178 L372.7202,92.9072 L362.7202,82.9072 L241.9492,82.9072 A0,0 0 0 0 241.9492,82.9072" fill="#FEFFDD" style="stroke:#181818;stroke-width:0.5;"/><path d="M362.7202,82.9072 L362.7202,92.9072 L372.7202,92.9072 L362.7202,82.9072" fill="#FEFFDD" style="stroke:#181818;stroke-width:0.5;"/><text fill="#000000" font-family="sans-serif" font-size="13" lengthAdjust="spacing" textLength="109.771" x="247.9492" y="100.4756">&#128993; Booting Phase</text><rect fill="#F1F1F1" height="34.1328" rx="12.5" ry="12.5" style="stroke:#181818;stroke-width:0.5;" width="110.416" x="111.5332" y="78.4961"/><text fill="#000000" font-family="sans-serif" font-size="12" lengthAdjust="spacing" textLength="90.416" x="121.5332" y="100.0977">State = Booting</text><rect fill="#F1F1F1" height="34.1328" rx="12.5" ry="12.5" style="stroke:#181818;stroke-width:0.5;" width="291.4824" x="21" y="132.6289"/><text fill="#000000" font-family="sans-serif" font-size="12" lengthAdjust="spacing" textLength="271.4824" x="31" y="154.2305">Ask StartupManager: does configuration exist?</text><path d="M282.1973,767.7031 L282.1973,776.3584 L262.1973,780.3584 L282.1973,784.3584 L282.1973,793.0137 A0,0 0 0 0 282.1973,793.0137 L439.7363,793.0137 A0,0 0 0 0 439.7363,793.0137 L439.7363,777.7031 L429.7363,767.7031 L282.1973,767.7031 A0,0 0 0 0 282.1973,767.7031" fill="#FEFFDD" style="stroke:#181818;stroke-width:0.5;"/><path d="M429.7363,767.7031 L429.7363,777.7031 L439.7363,777.7031 L429.7363,767.7031" fill="#FEFFDD" style="stroke:#181818;stroke-width:0.5;"/><text fill="#000000" font-family="sans-serif" font-size="13" lengthAdjust="spacing" textLength="136.5391" x="288.1973" y="785.2715">&#128295; Configuring Phase</text><rect fill="#F1F1F1" height="34.1328" rx="12.5" ry="12.5" style="stroke:#181818;stroke-width:0.5;" width="190.9121" x="71.2852" y="763.292"/><text fill="#000000" font-family="sans-serif" font-size="12" lengthAdjust="spacing" textLength="170.9121" x="81.2852" y="784.8936">Change phase to Configuring</text><rect fill="#F1F1F1" height="34.1328" rx="12.5" ry="12.5" style="stroke:#181818;stroke-width:0.5;" width="102.6465" x="115.418" y="817.4248"/><text fill="#000000" font-family="sans-serif" font-size="12" lengthAdjust="spacing" textLength="82.6465" x="125.418" y="839.0264">Bind to socket</text><rect fill="#F1F1F1" height="34.1328" rx="12.5" ry="12.5" style="stroke:#181818;stroke-width:0.5;" width="232.0332" x="50.7246" y="871.5576"/><text fill="#000000" font-family="sans-serif" font-size="12" lengthAdjust="spacing" textLength="212.0332" x="60.7246" y="893.1592">Serve configuration screen to Admin</text><path d="M274.3135,1321.6768 L274.3135,1330.332 L254.3135,1334.332 L274.3135,1338.332 L274.3135,1346.9873 A0,0 0 0 0 274.3135,1346.9873 L414.771,1346.9873 A0,0 0 0 0 414.771,1346.9873 L414.771,1331.6768 L404.771,1321.6768 L274.3135,1321.6768 A0,0 0 0 0 274.3135,1321.6768" fill="#FEFFDD" style="stroke:#181818;stroke-width:0.5;"/><path d="M404.771,1321.6768 L404.771,1331.6768 L414.771,1331.6768 L404.771,1321.6768" fill="#FEFFDD" style="stroke:#181818;stroke-width:0.5;"/><text fill="#000000" font-family="sans-serif" font-size="13" lengthAdjust="spacing" textLength="119.4575" x="280.3135" y="1339.2451">&#129513; Installing Phase</text><rect fill="#F1F1F1" height="34.1328" rx="12.5" ry="12.5" style="stroke:#181818;stroke-width:0.5;" width="175.1445" x="79.1689" y="1317.2656"/><text fill="#000000" font-family="sans-serif" font-size="12" lengthAdjust="spacing" textLength="155.1445" x="89.1689" y="1338.8672">Change phase to Installing</text><rect fill="#F1F1F1" height="34.1328" rx="12.5" ry="12.5" style="stroke:#181818;stroke-width:0.5;" width="102.6465" x="115.418" y="1371.3984"/><text fill="#000000" font-family="sans-serif" font-size="12" lengthAdjust="spacing" textLength="82.6465" x="125.418" y="1393">Bind to socket</text><rect fill="#F1F1F1" height="34.1328" rx="12.5" ry="12.5" style="stroke:#181818;stroke-width:0.5;" width="218.4336" x="57.5244" y="1425.5313"/><text fill="#000000" font-family="sans-serif" font-size="12" lengthAdjust="spacing" textLength="198.4336" x="67.5244" y="1447.1328">Serve installation screen to Admin</text><path d="M196.7412,1728.1953 L196.7412,1744.5059 L176.7412,1748.5059 L196.7412,1752.5059 L196.7412,1768.8164 A0,0 0 0 0 196.7412,1768.8164 L328.1396,1768.8164 A0,0 0 0 0 328.1396,1768.8164 L328.1396,1738.1953 L318.1396,1728.1953 L196.7412,1728.1953 A0,0 0 0 0 196.7412,1728.1953" fill="#FEFFDD" style="stroke:#181818;stroke-width:0.5;"/><path d="M318.1396,1728.1953 L318.1396,1738.1953 L328.1396,1738.1953 L318.1396,1728.1953" fill="#FEFFDD" style="stroke:#181818;stroke-width:0.5;"/><text fill="#000000" font-family="sans-serif" font-size="13" lengthAdjust="spacing" textLength="110.3984" x="202.7412" y="1745.7637">&lt;Settings valid?&gt;</text><text fill="#000000" font-family="sans-serif" font-size="13" lengthAdjust="spacing" textLength="61.7944" x="202.7412" y="1761.0742">Yes &lt;--+</text><ellipse cx="166.7412" cy="1748.5059" fill="#222222" rx="10" ry="10" style="stroke:#222222;stroke-width:1;"/><path d="M268.9111,1793.2275 L268.9111,1801.8828 L248.9111,1805.8828 L268.9111,1809.8828 L268.9111,1818.5381 A0,0 0 0 0 268.9111,1818.5381 L397.6636,1818.5381 A0,0 0 0 0 397.6636,1818.5381 L397.6636,1803.2275 L387.6636,1793.2275 L268.9111,1793.2275 A0,0 0 0 0 268.9111,1793.2275" fill="#FEFFDD" style="stroke:#181818;stroke-width:0.5;"/><path d="M387.6636,1793.2275 L387.6636,1803.2275 L397.6636,1803.2275 L387.6636,1793.2275" fill="#FEFFDD" style="stroke:#181818;stroke-width:0.5;"/><text fill="#000000" font-family="sans-serif" font-size="13" lengthAdjust="spacing" textLength="107.7524" x="274.9111" y="1810.7959">&#9989; Serving Phase</text><rect fill="#F1F1F1" height="34.1328" rx="12.5" ry="12.5" style="stroke:#181818;stroke-width:0.5;" width="164.3398" x="84.5713" y="1788.8164"/><text fill="#000000" font-family="sans-serif" font-size="12" lengthAdjust="spacing" textLength="144.3398" x="94.5713" y="1810.418">Change phase to Serving</text><rect fill="#F1F1F1" height="34.1328" rx="12.5" ry="12.5" style="stroke:#181818;stroke-width:0.5;" width="102.6465" x="115.418" y="1842.9492"/><text fill="#000000" font-family="sans-serif" font-size="12" lengthAdjust="spacing" textLength="82.6465" x="125.418" y="1864.5508">Bind to socket</text><rect fill="#F1F1F1" height="34.1328" rx="12.5" ry="12.5" style="stroke:#181818;stroke-width:0.5;" width="158.2578" x="87.6123" y="1897.082"/><text fill="#000000" font-family="sans-serif" font-size="12" lengthAdjust="spacing" textLength="138.2578" x="97.6123" y="1918.6836">Serve content to Clients</text><line style="stroke:#000000;stroke-width:1.5;" x1="15" x2="15" y1="12.2969" y2="1973.2148"/><rect fill="#F1F1F1" height="34.1328" rx="12.5" ry="12.5" style="stroke:#181818;stroke-width:0.5;" width="129.834" x="492.0918" y="235.2393"/><text fill="#000000" font-family="sans-serif" font-size="12" lengthAdjust="spacing" textLength="109.834" x="502.0918" y="256.8408">Load configuration</text><rect fill="#F1F1F1" height="34.1328" rx="12.5" ry="12.5" style="stroke:#181818;stroke-width:0.5;" width="148.6484" x="482.6846" y="289.3721"/><text fill="#000000" font-family="sans-serif" font-size="12" lengthAdjust="spacing" textLength="128.6484" x="492.6846" y="310.9736">Validate configuration</text><rect fill="#F1F1F1" height="34.1328" rx="12.5" ry="12.5" style="stroke:#181818;stroke-width:0.5;" width="163.7363" x="475.1406" y="391.9824"/><text fill="#000000" font-family="sans-serif" font-size="12" lengthAdjust="spacing" textLength="143.7363" x="485.1406" y="413.584">Get database connection</text><rect fill="#F1F1F1" height="34.1328" rx="12.5" ry="12.5" style="stroke:#181818;stroke-width:0.5;" width="168.7695" x="472.624" y="446.1152"/><text fill="#000000" font-family="sans-serif" font-size="12" lengthAdjust="spacing" textLength="148.7695" x="482.624" y="467.7168">Test database connection</text><rect fill="#F1F1F1" height="34.1328" rx="12.5" ry="12.5" style="stroke:#181818;stroke-width:0.5;" width="181.6836" x="466.167" y="548.7256"/><text fill="#000000" font-family="sans-serif" font-size="12" lengthAdjust="spacing" textLength="161.6836" x="476.167" y="570.3271">Go to "&#9881;&#65039; Validate Settings"</text><ellipse cx="557.0088" cy="622.292" fill="none" rx="11" ry="11" style="stroke:#222222;stroke-width:1;"/><ellipse cx="557.0088" cy="622.292" fill="#222222" rx="6" ry="6" style="stroke:#222222;stroke-width:1;"/><polygon fill="#F1F1F1" points="494.0596,500.248,619.958,500.248,631.958,512.248,619.958,524.248,494.0596,524.248,482.0596,512.248,494.0596,500.248" style="stroke:#181818;stroke-width:0.5;"/><text fill="#000000" font-family="sans-serif" font-size="11" lengthAdjust="spacing" textLength="18.5894" x="561.0088" y="534.8828">Yes</text><text fill="#000000" font-family="sans-serif" font-size="11" lengthAdjust="spacing" textLength="125.8984" x="494.0596" y="516.4053">DB connection success?</text><text fill="#000000" font-family="sans-serif" font-size="11" lengthAdjust="spacing" textLength="14.8833" x="631.958" y="509.9277">No</text><polygon fill="#F1F1F1" points="503.6443,343.5049,610.3733,343.5049,622.3733,355.5049,610.3733,367.5049,503.6443,367.5049,491.6443,355.5049,503.6443,343.5049" style="stroke:#181818;stroke-width:0.5;"/><text fill="#000000" font-family="sans-serif" font-size="11" lengthAdjust="spacing" textLength="18.5894" x="561.0088" y="378.1396">Yes</text><text fill="#000000" font-family="sans-serif" font-size="11" lengthAdjust="spacing" textLength="106.729" x="503.6443" y="359.6621">Configuration valid?</text><text fill="#000000" font-family="sans-serif" font-size="11" lengthAdjust="spacing" textLength="14.8833" x="622.3733" y="353.1846">No</text><polygon fill="#F1F1F1" points="557.0088,675.292,569.0088,687.292,557.0088,699.292,545.0088,687.292,557.0088,675.292" style="stroke:#181818;stroke-width:0.5;"/><text fill="#000000" font-family="sans-serif" font-size="11" lengthAdjust="spacing" textLength="84.9116" x="569.0088" y="684.9717">ConfigFlow : No</text><polygon fill="#F1F1F1" points="500.478,186.7617,613.5396,186.7617,625.5396,198.7617,613.5396,210.7617,500.478,210.7617,488.478,198.7617,500.478,186.7617" style="stroke:#181818;stroke-width:0.5;"/><text fill="#000000" font-family="sans-serif" font-size="11" lengthAdjust="spacing" textLength="18.5894" x="561.0088" y="221.3965">Yes</text><text fill="#000000" font-family="sans-serif" font-size="11" lengthAdjust="spacing" textLength="113.0615" x="500.478" y="202.9189">Configuration exists?</text><text fill="#000000" font-family="sans-serif" font-size="11" lengthAdjust="spacing" textLength="14.8833" x="625.5396" y="196.4414">No</text><polygon fill="#F1F1F1" points="557.0088,719.292,569.0088,731.292,557.0088,743.292,545.0088,731.292,557.0088,719.292" style="stroke:#181818;stroke-width:0.5;"/><text fill="#000000" font-family="sans-serif" font-size="11" lengthAdjust="spacing" textLength="84.9116" x="569.0088" y="728.9717">ConfigFlow : No</text><path d="M683.2813,1038.3672 L683.2813,1047.0225 L663.2813,1051.0225 L683.2813,1055.0225 L683.2813,1063.6777 A0,0 0 0 0 683.2813,1063.6777 L831.2725,1063.6777 A0,0 0 0 0 831.2725,1063.6777 L831.2725,1048.3672 L821.2725,1038.3672 L683.2813,1038.3672 A0,0 0 0 0 683.2813,1038.3672" fill="#FEFFDD" style="stroke:#181818;stroke-width:0.5;"/><path d="M821.2725,1038.3672 L821.2725,1048.3672 L831.2725,1048.3672 L821.2725,1038.3672" fill="#FEFFDD" style="stroke:#181818;stroke-width:0.5;"/><text fill="#000000" font-family="sans-serif" font-size="13" lengthAdjust="spacing" textLength="126.9912" x="689.2813" y="1055.9355">&#9881;&#65039; Validate Settings</text><rect fill="#F1F1F1" height="34.1328" rx="12.5" ry="12.5" style="stroke:#181818;stroke-width:0.5;" width="212.5449" x="450.7363" y="1033.9561"/><text fill="#000000" font-family="sans-serif" font-size="12" lengthAdjust="spacing" textLength="192.5449" x="460.7363" y="1055.5576">Ask SettingsManager for settings</text><line style="stroke:#000000;stroke-width:1.5;" x1="444.7363" x2="444.7363" y1="12.2969" y2="1973.2148"/><rect fill="#F1F1F1" height="34.1328" rx="12.5" ry="12.5" style="stroke:#181818;stroke-width:0.5;" width="52.168" x="963.793" y="925.6904"/><text fill="#000000" font-family="sans-serif" font-size="12" lengthAdjust="spacing" textLength="32.168" x="973.793" y="947.292">Login</text><rect fill="#F1F1F1" height="34.1328" rx="12.5" ry="12.5" style="stroke:#181818;stroke-width:0.5;" width="254.0527" x="862.8506" y="979.8232"/><text fill="#000000" font-family="sans-serif" font-size="12" lengthAdjust="spacing" textLength="234.0527" x="872.8506" y="1001.4248">Submit configuration to StartupManager</text><rect fill="#F1F1F1" height="34.1328" rx="12.5" ry="12.5" style="stroke:#181818;stroke-width:0.5;" width="52.168" x="963.793" y="1479.6641"/><text fill="#000000" font-family="sans-serif" font-size="12" lengthAdjust="spacing" textLength="32.168" x="973.793" y="1501.2656">Login</text><rect fill="#F1F1F1" height="34.1328" rx="12.5" ry="12.5" style="stroke:#181818;stroke-width:0.5;" width="295.209" x="842.2725" y="1533.7969"/><text fill="#000000" font-family="sans-serif" font-size="12" lengthAdjust="spacing" textLength="275.209" x="852.2725" y="1555.3984">Submit installation settings to SettingsManager</text><line style="stroke:#000000;stroke-width:1.5;" x1="836.2725" x2="836.2725" y1="12.2969" y2="1973.2148"/><rect fill="#F1F1F1" height="34.1328" rx="12.5" ry="12.5" style="stroke:#181818;stroke-width:0.5;" width="116.8555" x="1179.8955" y="1088.0889"/><text fill="#000000" font-family="sans-serif" font-size="12" lengthAdjust="spacing" textLength="96.8555" x="1189.8955" y="1109.6904">Validate settings</text><rect fill="#F1F1F1" height="34.1328" rx="12.5" ry="12.5" style="stroke:#181818;stroke-width:0.5;" width="164.2324" x="1156.207" y="1190.6992"/><text fill="#000000" font-family="sans-serif" font-size="12" lengthAdjust="spacing" textLength="144.2324" x="1166.207" y="1212.3008">Go to "&#9989; Serving Phase"</text><ellipse cx="1238.3232" cy="1264.2656" fill="none" rx="11" ry="11" style="stroke:#222222;stroke-width:1;"/><ellipse cx="1238.3232" cy="1264.2656" fill="#222222" rx="6" ry="6" style="stroke:#222222;stroke-width:1;"/><polygon fill="#F1F1F1" points="1200.3604,1142.2217,1276.2861,1142.2217,1288.2861,1154.2217,1276.2861,1166.2217,1200.3604,1166.2217,1188.3604,1154.2217,1200.3604,1142.2217" style="stroke:#181818;stroke-width:0.5;"/><text fill="#000000" font-family="sans-serif" font-size="11" lengthAdjust="spacing" textLength="18.5894" x="1242.3232" y="1176.8564">Yes</text><text fill="#000000" font-family="sans-serif" font-size="11" lengthAdjust="spacing" textLength="75.9258" x="1200.3604" y="1158.3789">Settings valid?</text><text fill="#000000" font-family="sans-serif" font-size="11" lengthAdjust="spacing" textLength="14.8833" x="1288.2861" y="1151.9014">No</text><rect fill="#F1F1F1" height="34.1328" rx="12.5" ry="12.5" style="stroke:#181818;stroke-width:0.5;" width="96.0781" x="1190.2842" y="1587.9297"/><text fill="#000000" font-family="sans-serif" font-size="12" lengthAdjust="spacing" textLength="76.0781" x="1200.2842" y="1609.5313">Save settings</text><rect fill="#F1F1F1" height="34.1328" rx="12.5" ry="12.5" style="stroke:#181818;stroke-width:0.5;" width="181.6836" x="1147.4814" y="1642.0625"/><text fill="#000000" font-family="sans-serif" font-size="12" lengthAdjust="spacing" textLength="161.6836" x="1157.4814" y="1663.6641">Go to "&#9881;&#65039; Validate Settings"</text><ellipse cx="1238.3232" cy="1707.1953" fill="none" rx="11" ry="11" style="stroke:#222222;stroke-width:1;"/><ellipse cx="1238.3232" cy="1707.1953" fill="#222222" rx="6" ry="6" style="stroke:#222222;stroke-width:1;"/><line style="stroke:#000000;stroke-width:1.5;" x1="1141.4814" x2="1141.4814" y1="12.2969" y2="1973.2148"/><ellipse cx="1384.9233" cy="1962.2148" fill="none" rx="11" ry="11" style="stroke:#222222;stroke-width:1;"/><ellipse cx="1384.9233" cy="1962.2148" fill="#222222" rx="6" ry="6" style="stroke:#222222;stroke-width:1;"/><line style="stroke:#000000;stroke-width:1.5;" x1="1349.4395" x2="1349.4395" y1="12.2969" y2="1973.2148"/><line style="stroke:#000000;stroke-width:1.5;" x1="1419.4072" x2="1419.4072" y1="12.2969" y2="1973.2148"/><line style="stroke:#181818;stroke-width:1;" x1="166.7412" x2="166.7412" y1="58.4961" y2="78.4961"/><polygon fill="#181818" points="162.7412,68.4961,166.7412,78.4961,170.7412,68.4961,166.7412,72.4961" style="stroke:#181818;stroke-width:1;"/><line style="stroke:#181818;stroke-width:1;" x1="166.7412" x2="166.7412" y1="112.6289" y2="132.6289"/><polygon fill="#181818" points="162.7412,122.6289,166.7412,132.6289,170.7412,122.6289,166.7412,126.6289" style="stroke:#181818;stroke-width:1;"/><line style="stroke:#181818;stroke-width:1;" x1="557.0088" x2="557.0088" y1="743.292" y2="748.292"/><line style="stroke:#181818;stroke-width:1;" x1="557.0088" x2="166.7412" y1="748.292" y2="748.292"/><line style="stroke:#181818;stroke-width:1;" x1="166.7412" x2="166.7412" y1="748.292" y2="763.292"/><polygon fill="#181818" points="162.7412,753.292,166.7412,763.292,170.7412,753.292,166.7412,757.292" style="stroke:#181818;stroke-width:1;"/><line style="stroke:#181818;stroke-width:1;" x1="166.7412" x2="166.7412" y1="797.4248" y2="817.4248"/><polygon fill="#181818" points="162.7412,807.4248,166.7412,817.4248,170.7412,807.4248,166.7412,811.4248" style="stroke:#181818;stroke-width:1;"/><line style="stroke:#181818;stroke-width:1;" x1="166.7412" x2="166.7412" y1="851.5576" y2="871.5576"/><polygon fill="#181818" points="162.7412,861.5576,166.7412,871.5576,170.7412,861.5576,166.7412,865.5576" style="stroke:#181818;stroke-width:1;"/><line style="stroke:#181818;stroke-width:1;" x1="1238.3232" x2="1238.3232" y1="1297.2656" y2="1302.2656"/><line style="stroke:#181818;stroke-width:1;" x1="1238.3232" x2="166.7412" y1="1302.2656" y2="1302.2656"/><line style="stroke:#181818;stroke-width:1;" x1="166.7412" x2="166.7412" y1="1302.2656" y2="1317.2656"/><polygon fill="#181818" points="162.7412,1307.2656,166.7412,1317.2656,170.7412,1307.2656,166.7412,1311.2656" style="stroke:#181818;stroke-width:1;"/><line style="stroke:#181818;stroke-width:1;" x1="166.7412" x2="166.7412" y1="1351.3984" y2="1371.3984"/><polygon fill="#181818" points="162.7412,1361.3984,166.7412,1371.3984,170.7412,1361.3984,166.7412,1365.3984" style="stroke:#181818;stroke-width:1;"/><line style="stroke:#181818;stroke-width:1;" x1="166.7412" x2="166.7412" y1="1405.5313" y2="1425.5313"/><polygon fill="#181818" points="162.7412,1415.5313,166.7412,1425.5313,170.7412,1415.5313,166.7412,1419.5313" style="stroke:#181818;stroke-width:1;"/><line style="stroke:#181818;stroke-width:1;" x1="166.7412" x2="166.7412" y1="1723.1953" y2="1738.5059"/><polygon fill="#181818" points="162.7412,1728.5059,166.7412,1738.5059,170.7412,1728.5059,166.7412,1732.5059" style="stroke:#181818;stroke-width:1;"/><line style="stroke:#181818;stroke-width:1;" x1="166.7412" x2="166.7412" y1="1758.5059" y2="1788.8164"/><polygon fill="#181818" points="162.7412,1778.8164,166.7412,1788.8164,170.7412,1778.8164,166.7412,1782.8164" style="stroke:#181818;stroke-width:1;"/><line style="stroke:#181818;stroke-width:1;" x1="166.7412" x2="166.7412" y1="1822.9492" y2="1842.9492"/><polygon fill="#181818" points="162.7412,1832.9492,166.7412,1842.9492,170.7412,1832.9492,166.7412,1836.9492" style="stroke:#181818;stroke-width:1;"/><line style="stroke:#181818;stroke-width:1;" x1="166.7412" x2="166.7412" y1="1877.082" y2="1897.082"/><polygon fill="#181818" points="162.7412,1887.082,166.7412,1897.082,170.7412,1887.082,166.7412,1891.082" style="stroke:#181818;stroke-width:1;"/><line style="stroke:#181818;stroke-width:1;" x1="557.0088" x2="557.0088" y1="269.3721" y2="289.3721"/><polygon fill="#181818" points="553.0088,279.3721,557.0088,289.3721,561.0088,279.3721,557.0088,283.3721" style="stroke:#181818;stroke-width:1;"/><line style="stroke:#181818;stroke-width:1;" x1="557.0088" x2="557.0088" y1="426.1152" y2="446.1152"/><polygon fill="#181818" points="553.0088,436.1152,557.0088,446.1152,561.0088,436.1152,557.0088,440.1152" style="stroke:#181818;stroke-width:1;"/><line style="stroke:#181818;stroke-width:1;" x1="557.0088" x2="557.0088" y1="582.8584" y2="611.292"/><polygon fill="#181818" points="553.0088,601.292,557.0088,611.292,561.0088,601.292,557.0088,605.292" style="stroke:#181818;stroke-width:1;"/><line style="stroke:#181818;stroke-width:1;" x1="557.0088" x2="557.0088" y1="524.248" y2="548.7256"/><polygon fill="#181818" points="553.0088,538.7256,557.0088,548.7256,561.0088,538.7256,557.0088,542.7256" style="stroke:#181818;stroke-width:1;"/><line style="stroke:#181818;stroke-width:1;" x1="631.958" x2="657.8506" y1="512.248" y2="512.248"/><polygon fill="#181818" points="653.8506,581.292,657.8506,591.292,661.8506,581.292,657.8506,585.292" style="stroke:#181818;stroke-width:1;"/><line style="stroke:#181818;stroke-width:1;" x1="657.8506" x2="657.8506" y1="512.248" y2="655.292"/><line style="stroke:#181818;stroke-width:1;" x1="657.8506" x2="557.0088" y1="655.292" y2="655.292"/><line style="stroke:#181818;stroke-width:1;" x1="557.0088" x2="557.0088" y1="655.292" y2="675.292"/><polygon fill="#181818" points="553.0088,665.292,557.0088,675.292,561.0088,665.292,557.0088,669.292" style="stroke:#181818;stroke-width:1;"/><line style="stroke:#181818;stroke-width:1;" x1="557.0088" x2="557.0088" y1="480.248" y2="500.248"/><polygon fill="#181818" points="553.0088,490.248,557.0088,500.248,561.0088,490.248,557.0088,494.248" style="stroke:#181818;stroke-width:1;"/><line style="stroke:#181818;stroke-width:1;" x1="557.0088" x2="557.0088" y1="367.5049" y2="391.9824"/><polygon fill="#181818" points="553.0088,381.9824,557.0088,391.9824,561.0088,381.9824,557.0088,385.9824" style="stroke:#181818;stroke-width:1;"/><line style="stroke:#181818;stroke-width:1;" x1="622.3733" x2="679.8506" y1="355.5049" y2="355.5049"/><polygon fill="#181818" points="675.8506,506.1592,679.8506,516.1592,683.8506,506.1592,679.8506,510.1592" style="stroke:#181818;stroke-width:1;"/><line style="stroke:#181818;stroke-width:1;" x1="679.8506" x2="679.8506" y1="355.5049" y2="687.292"/><line style="stroke:#181818;stroke-width:1;" x1="679.8506" x2="569.0088" y1="687.292" y2="687.292"/><polygon fill="#181818" points="579.0088,683.292,569.0088,687.292,579.0088,691.292,575.0088,687.292" style="stroke:#181818;stroke-width:1;"/><line style="stroke:#181818;stroke-width:1;" x1="557.0088" x2="557.0088" y1="323.5049" y2="343.5049"/><polygon fill="#181818" points="553.0088,333.5049,557.0088,343.5049,561.0088,333.5049,557.0088,337.5049" style="stroke:#181818;stroke-width:1;"/><line style="stroke:#181818;stroke-width:1;" x1="557.0088" x2="557.0088" y1="210.7617" y2="235.2393"/><polygon fill="#181818" points="553.0088,225.2393,557.0088,235.2393,561.0088,225.2393,557.0088,229.2393" style="stroke:#181818;stroke-width:1;"/><line style="stroke:#181818;stroke-width:1;" x1="625.5396" x2="701.8506" y1="198.7617" y2="198.7617"/><polygon fill="#181818" points="697.8506,452.0264,701.8506,462.0264,705.8506,452.0264,701.8506,456.0264" style="stroke:#181818;stroke-width:1;"/><line style="stroke:#181818;stroke-width:1;" x1="701.8506" x2="701.8506" y1="198.7617" y2="731.292"/><line style="stroke:#181818;stroke-width:1;" x1="701.8506" x2="569.0088" y1="731.292" y2="731.292"/><polygon fill="#181818" points="579.0088,727.292,569.0088,731.292,579.0088,735.292,575.0088,731.292" style="stroke:#181818;stroke-width:1;"/><line style="stroke:#181818;stroke-width:1;" x1="557.0088" x2="557.0088" y1="699.292" y2="719.292"/><polygon fill="#181818" points="553.0088,709.292,557.0088,719.292,561.0088,709.292,557.0088,713.292" style="stroke:#181818;stroke-width:1;"/><line style="stroke:#181818;stroke-width:1;" x1="989.877" x2="989.877" y1="1013.9561" y2="1018.9561"/><line style="stroke:#181818;stroke-width:1;" x1="989.877" x2="557.0088" y1="1018.9561" y2="1018.9561"/><line style="stroke:#181818;stroke-width:1;" x1="557.0088" x2="557.0088" y1="1018.9561" y2="1033.9561"/><polygon fill="#181818" points="553.0088,1023.9561,557.0088,1033.9561,561.0088,1023.9561,557.0088,1027.9561" style="stroke:#181818;stroke-width:1;"/><line style="stroke:#181818;stroke-width:1;" x1="989.877" x2="989.877" y1="959.8232" y2="979.8232"/><polygon fill="#181818" points="985.877,969.8232,989.877,979.8232,993.877,969.8232,989.877,973.8232" style="stroke:#181818;stroke-width:1;"/><line style="stroke:#181818;stroke-width:1;" x1="989.877" x2="989.877" y1="1513.7969" y2="1533.7969"/><polygon fill="#181818" points="985.877,1523.7969,989.877,1533.7969,993.877,1523.7969,989.877,1527.7969" style="stroke:#181818;stroke-width:1;"/><line style="stroke:#181818;stroke-width:1;" x1="1238.3232" x2="1238.3232" y1="1224.832" y2="1253.2656"/><polygon fill="#181818" points="1234.3232,1243.2656,1238.3232,1253.2656,1242.3232,1243.2656,1238.3232,1247.2656" style="stroke:#181818;stroke-width:1;"/><line style="stroke:#181818;stroke-width:1;" x1="1238.3232" x2="1238.3232" y1="1166.2217" y2="1190.6992"/><polygon fill="#181818" points="1234.3232,1180.6992,1238.3232,1190.6992,1242.3232,1180.6992,1238.3232,1184.6992" style="stroke:#181818;stroke-width:1;"/><line style="stroke:#181818;stroke-width:1;" x1="1288.2861" x2="1330.4395" y1="1154.2217" y2="1154.2217"/><polygon fill="#181818" points="1326.4395,1223.2656,1330.4395,1233.2656,1334.4395,1223.2656,1330.4395,1227.2656" style="stroke:#181818;stroke-width:1;"/><line style="stroke:#181818;stroke-width:1;" x1="1330.4395" x2="1330.4395" y1="1154.2217" y2="1297.2656"/><line style="stroke:#181818;stroke-width:1;" x1="1330.4395" x2="1238.3232" y1="1297.2656" y2="1297.2656"/><line style="stroke:#181818;stroke-width:1;" x1="1238.3232" x2="1238.3232" y1="1122.2217" y2="1142.2217"/><polygon fill="#181818" points="1234.3232,1132.2217,1238.3232,1142.2217,1242.3232,1132.2217,1238.3232,1136.2217" style="stroke:#181818;stroke-width:1;"/><line style="stroke:#181818;stroke-width:1;" x1="1238.3232" x2="1238.3232" y1="1622.0625" y2="1642.0625"/><polygon fill="#181818" points="1234.3232,1632.0625,1238.3232,1642.0625,1242.3232,1632.0625,1238.3232,1636.0625" style="stroke:#181818;stroke-width:1;"/><line style="stroke:#181818;stroke-width:1;" x1="1238.3232" x2="1238.3232" y1="1676.1953" y2="1696.1953"/><polygon fill="#181818" points="1234.3232,1686.1953,1238.3232,1696.1953,1242.3232,1686.1953,1238.3232,1690.1953" style="stroke:#181818;stroke-width:1;"/><line style="stroke:#181818;stroke-width:1;" x1="166.7412" x2="166.7412" y1="166.7617" y2="171.7617"/><line style="stroke:#181818;stroke-width:1;" x1="166.7412" x2="557.0088" y1="171.7617" y2="171.7617"/><line style="stroke:#181818;stroke-width:1;" x1="557.0088" x2="557.0088" y1="171.7617" y2="186.7617"/><polygon fill="#181818" points="553.0088,176.7617,557.0088,186.7617,561.0088,176.7617,557.0088,180.7617" style="stroke:#181818;stroke-width:1;"/><line style="stroke:#181818;stroke-width:1;" x1="166.7412" x2="166.7412" y1="905.6904" y2="910.6904"/><line style="stroke:#181818;stroke-width:1;" x1="166.7412" x2="989.877" y1="910.6904" y2="910.6904"/><line style="stroke:#181818;stroke-width:1;" x1="989.877" x2="989.877" y1="910.6904" y2="925.6904"/><polygon fill="#181818" points="985.877,915.6904,989.877,925.6904,993.877,915.6904,989.877,919.6904" style="stroke:#181818;stroke-width:1;"/><line style="stroke:#181818;stroke-width:1;" x1="557.0088" x2="557.0088" y1="1068.0889" y2="1073.0889"/><line style="stroke:#181818;stroke-width:1;" x1="557.0088" x2="1238.3232" y1="1073.0889" y2="1073.0889"/><line style="stroke:#181818;stroke-width:1;" x1="1238.3232" x2="1238.3232" y1="1073.0889" y2="1088.0889"/><polygon fill="#181818" points="1234.3232,1078.0889,1238.3232,1088.0889,1242.3232,1078.0889,1238.3232,1082.0889" style="stroke:#181818;stroke-width:1;"/><line style="stroke:#181818;stroke-width:1;" x1="166.7412" x2="166.7412" y1="1459.6641" y2="1464.6641"/><line style="stroke:#181818;stroke-width:1;" x1="166.7412" x2="989.877" y1="1464.6641" y2="1464.6641"/><line style="stroke:#181818;stroke-width:1;" x1="989.877" x2="989.877" y1="1464.6641" y2="1479.6641"/><polygon fill="#181818" points="985.877,1469.6641,989.877,1479.6641,993.877,1469.6641,989.877,1473.6641" style="stroke:#181818;stroke-width:1;"/><line style="stroke:#181818;stroke-width:1;" x1="989.877" x2="989.877" y1="1567.9297" y2="1572.9297"/><line style="stroke:#181818;stroke-width:1;" x1="989.877" x2="1238.3232" y1="1572.9297" y2="1572.9297"/><line style="stroke:#181818;stroke-width:1;" x1="1238.3232" x2="1238.3232" y1="1572.9297" y2="1587.9297"/><polygon fill="#181818" points="1234.3232,1577.9297,1238.3232,1587.9297,1242.3232,1577.9297,1238.3232,1581.9297" style="stroke:#181818;stroke-width:1;"/><line style="stroke:#181818;stroke-width:1;" x1="166.7412" x2="166.7412" y1="1931.2148" y2="1936.2148"/><line style="stroke:#181818;stroke-width:1;" x1="166.7412" x2="1384.9233" y1="1936.2148" y2="1936.2148"/><line style="stroke:#181818;stroke-width:1;" x1="1384.9233" x2="1384.9233" y1="1936.2148" y2="1951.2148"/><polygon fill="#181818" points="1380.9233,1941.2148,1384.9233,1951.2148,1388.9233,1941.2148,1384.9233,1945.2148" style="stroke:#181818;stroke-width:1;"/><text fill="#000000" font-family="sans-serif" font-size="18" lengthAdjust="spacing" textLength="145.0195" x="157.3584" y="29.6992">RequestManager</text><text fill="#000000" font-family="sans-serif" font-size="18" lengthAdjust="spacing" textLength="138.1377" x="571.4355" y="29.6992">StartupManager</text><text fill="#000000" font-family="sans-serif" font-size="18" lengthAdjust="spacing" textLength="56.9268" x="960.4136" y="29.6992">Admin</text><text fill="#000000" font-family="sans-serif" font-size="18" lengthAdjust="spacing" textLength="145.1338" x="1172.8936" y="29.6992">SettingsManager</text><text fill="#000000" font-family="sans-serif" font-size="18" lengthAdjust="spacing" textLength="59.9678" x="1354.4395" y="29.6992">Clients</text><!--SRC=[bLN1ZjCm4BtxAqPxeIlK7qYMNMsBG4YmGWGXSNIJQM8rQvVOBHnovSo52mXfnMd57_0z_01y0hPZfx6JYj93wth6Cy_llKdQL_XkXrAze9oMsBH4AjeeacIAAeH7i112CLwcX0lzls5bfSYVkxllFW0lAogH82_0P11IqnNMiAmmtom5NxEI9DTo0vafkzkwDWaK0YNaDc7NKCK41_p0fBfA2Md3v9QmDSoMurnvTGwgGWwp6t5E0EQNq6KzgSLxIE16f0HhYJ1xYz8a9Cy5BSAkgTb-GsjMcFj68HqRjzwRvAZpT6-0eBjkz1GLw4PqfJappJZc7eIEljOwJ8Tjt41vl1ZiWzpbEKev0dCCpWYGWIH02JZxzVNBxv-Ve6SYGsNabMUfIvHAR5qDNh0ryR_TDta0y_u38M4MmY5AsjXopZ8zNf8iAyfBXAtnbe7d2uwT-Fb-68pTc2oONke2KkGRLAdsDJRxI6UGUOEQFfrsNTmoGtTh5otHXYdDHfBjLhTCHUVqWT2fvcHyEQF4OHZIY2bFioVUb1rI5Kz2HvLNoPzs8-R-kMHOYmQasmjOEwRrO8hRg9Yceay_rBI3sLzXQZ3qxPzn_KYfwwCpwGtuxICOSNeLhVCwrqrvp9NzBuiDe8mzve9ZYzt_6CHETHWRmZlTOE4npwmnMgX7EYbHHlT3UKwOxOxVs9ET2jqhuD-isWjRJksx8s3l8dB79T6omyLy_d10OQo40n1wDhR7IKEka2lx_AYPNXd7jcxPsgl_1G00]--></g></svg>