<svg xmlns="http://www.w3.org/2000/svg" xmlns:xlink="http://www.w3.org/1999/xlink" contentStyleType="text/css" data-diagram-type="SEQUENCE" height="1363px" preserveAspectRatio="none" style="width:1352px;height:1363px;background:#FFFFFF;" version="1.1" viewBox="0 0 1352 1363" width="1352px" zoomAndPan="magnify"><title>WhisperCMS-Installation-Sequence</title><defs/><g><text fill="#000000" font-family="sans-serif" font-size="14" font-weight="bold" lengthAdjust="spacing" textLength="255.8008" x="547.3611" y="28.5352">WhisperCMS-Installation-Sequence</text><g><title>su</title><rect fill="#000000" fill-opacity="0.00000" height="1163.1113" width="8" x="14.5" y="118.9766"/><line style="stroke:#181818;stroke-width:0.5;stroke-dasharray:5,5;" x1="18" x2="18" y1="118.9766" y2="1282.0879"/></g><g><title>Core</title><rect fill="#000000" fill-opacity="0.00000" height="1163.1113" width="8" x="257.7354" y="118.9766"/><line style="stroke:#181818;stroke-width:0.5;stroke-dasharray:5,5;" x1="260.8281" x2="260.8281" y1="118.9766" y2="1282.0879"/></g><g><title>StartupManager</title><rect fill="#000000" fill-opacity="0.00000" height="1163.1113" width="8" x="465.5444" y="118.9766"/><line style="stroke:#181818;stroke-width:0.5;stroke-dasharray:5,5;" x1="468.8242" x2="468.8242" y1="118.9766" y2="1282.0879"/></g><g><title>Argon2</title><rect fill="#000000" fill-opacity="0.00000" height="1163.1113" width="8" x="609.4517" y="118.9766"/><line style="stroke:#181818;stroke-width:0.5;stroke-dasharray:5,5;" x1="613.3228" x2="613.3228" y1="118.9766" y2="1282.0879"/></g><g><title>RequestManager</title><rect fill="#000000" fill-opacity="0.00000" height="1163.1113" width="8" x="714.9771" y="118.9766"/><line style="stroke:#181818;stroke-width:0.5;stroke-dasharray:5,5;" x1="718.5806" x2="718.5806" y1="118.9766" y2="1282.0879"/></g><g><title>admin</title><rect fill="#000000" fill-opacity="0.00000" height="1163.1113" width="8" x="812.5479" y="118.9766"/><line style="stroke:#181818;stroke-width:0.5;stroke-dasharray:5,5;" x1="816.3735" x2="816.3735" y1="118.9766" y2="1282.0879"/></g><g><title>Nginx</title><rect fill="#000000" fill-opacity="0.00000" height="1163.1113" width="8" x="1080.2598" y="118.9766"/><line style="stroke:#181818;stroke-width:0.5;stroke-dasharray:5,5;" x1="1084.063" x2="1084.063" y1="118.9766" y2="1282.0879"/></g><g><title>DataService</title><rect fill="#000000" fill-opacity="0.00000" height="1163.1113" width="8" x="1163.7153" y="118.9766"/><line style="stroke:#181818;stroke-width:0.5;stroke-dasharray:5,5;" x1="1167.4565" x2="1167.4565" y1="118.9766" y2="1282.0879"/></g><g><title>PostgreSQL</title><rect fill="#000000" fill-opacity="0.00000" height="1163.1113" width="8" x="1297.0981" y="118.9766"/><line style="stroke:#181818;stroke-width:0.5;stroke-dasharray:5,5;" x1="1300.6733" x2="1300.6733" y1="118.9766" y2="1282.0879"/></g><g class="participant participant-head" data-participant="2"><text fill="#000000" font-family="sans-serif" font-size="14" lengthAdjust="spacing" textLength="15.8252" x="7.5874" y="116.0234">su</text><ellipse cx="18.5" cy="50.9883" fill="#E2E2F0" rx="8" ry="8" style="stroke:#181818;stroke-width:0.5;"/><path d="M18.5,58.9883 L18.5,85.9883 M5.5,66.9883 L31.5,66.9883 M18.5,85.9883 L5.5,100.9883 M18.5,85.9883 L31.5,100.9883" fill="none" style="stroke:#181818;stroke-width:0.5;"/></g><g class="participant participant-tail" data-participant="2"><text fill="#000000" font-family="sans-serif" font-size="14" lengthAdjust="spacing" textLength="15.8252" x="7.5874" y="1294.623">su</text><ellipse cx="18.5" cy="1306.0762" fill="#E2E2F0" rx="8" ry="8" style="stroke:#181818;stroke-width:0.5;"/><path d="M18.5,1314.0762 L18.5,1341.0762 M5.5,1322.0762 L31.5,1322.0762 M18.5,1341.0762 L5.5,1356.0762 M18.5,1341.0762 L31.5,1356.0762" fill="none" style="stroke:#181818;stroke-width:0.5;"/></g><g class="participant participant-head" data-participant="5"><rect fill="#E2E2F0" height="30.4883" rx="2.5" ry="2.5" style="stroke:#181818;stroke-width:0.5;" width="45.8145" x="238.8281" y="87.4883"/><text fill="#000000" font-family="sans-serif" font-size="14" lengthAdjust="spacing" textLength="31.8145" x="245.8281" y="108.0234">Core</text></g><g class="participant participant-tail" data-participant="5"><rect fill="#E2E2F0" height="30.4883" rx="2.5" ry="2.5" style="stroke:#181818;stroke-width:0.5;" width="45.8145" x="238.8281" y="1281.0879"/><text fill="#000000" font-family="sans-serif" font-size="14" lengthAdjust="spacing" textLength="31.8145" x="245.8281" y="1301.623">Core</text></g><g class="participant participant-head" data-participant="11"><rect fill="#E2E2F0" height="30.4883" rx="2.5" ry="2.5" style="stroke:#181818;stroke-width:0.5;" width="121.4404" x="408.8242" y="87.4883"/><text fill="#000000" font-family="sans-serif" font-size="14" lengthAdjust="spacing" textLength="107.4404" x="415.8242" y="108.0234">StartupManager</text></g><g class="participant participant-tail" data-participant="11"><rect fill="#E2E2F0" height="30.4883" rx="2.5" ry="2.5" style="stroke:#181818;stroke-width:0.5;" width="121.4404" x="408.8242" y="1281.0879"/><text fill="#000000" font-family="sans-serif" font-size="14" lengthAdjust="spacing" textLength="107.4404" x="415.8242" y="1301.623">StartupManager</text></g><g class="participant participant-head" data-participant="17"><rect fill="#E2E2F0" height="30.4883" rx="2.5" ry="2.5" style="stroke:#181818;stroke-width:0.5;" width="64.2578" x="581.3228" y="87.4883"/><text fill="#000000" font-family="sans-serif" font-size="14" lengthAdjust="spacing" textLength="50.2578" x="588.3228" y="108.0234">Argon2</text></g><g class="participant participant-tail" data-participant="17"><rect fill="#E2E2F0" height="30.4883" rx="2.5" ry="2.5" style="stroke:#181818;stroke-width:0.5;" width="64.2578" x="581.3228" y="1281.0879"/><text fill="#000000" font-family="sans-serif" font-size="14" lengthAdjust="spacing" textLength="50.2578" x="588.3228" y="1301.623">Argon2</text></g><g class="participant participant-head" data-participant="12"><rect fill="#E2E2F0" height="30.4883" rx="2.5" ry="2.5" style="stroke:#181818;stroke-width:0.5;" width="126.793" x="655.5806" y="87.4883"/><text fill="#000000" font-family="sans-serif" font-size="14" lengthAdjust="spacing" textLength="112.793" x="662.5806" y="108.0234">RequestManager</text></g><g class="participant participant-tail" data-participant="12"><rect fill="#E2E2F0" height="30.4883" rx="2.5" ry="2.5" style="stroke:#181818;stroke-width:0.5;" width="126.793" x="655.5806" y="1281.0879"/><text fill="#000000" font-family="sans-serif" font-size="14" lengthAdjust="spacing" textLength="112.793" x="662.5806" y="1301.623">RequestManager</text></g><g class="participant participant-head" data-participant="1"><text fill="#000000" font-family="sans-serif" font-size="14" lengthAdjust="spacing" textLength="42.3486" x="792.3735" y="116.0234">admin</text><ellipse cx="816.5479" cy="50.9883" fill="#E2E2F0" rx="8" ry="8" style="stroke:#181818;stroke-width:0.5;"/><path d="M816.5479,58.9883 L816.5479,85.9883 M803.5479,66.9883 L829.5479,66.9883 M816.5479,85.9883 L803.5479,100.9883 M816.5479,85.9883 L829.5479,100.9883" fill="none" style="stroke:#181818;stroke-width:0.5;"/></g><g class="participant participant-tail" data-participant="1"><text fill="#000000" font-family="sans-serif" font-size="14" lengthAdjust="spacing" textLength="42.3486" x="792.3735" y="1294.623">admin</text><ellipse cx="816.5479" cy="1306.0762" fill="#E2E2F0" rx="8" ry="8" style="stroke:#181818;stroke-width:0.5;"/><path d="M816.5479,1314.0762 L816.5479,1341.0762 M803.5479,1322.0762 L829.5479,1322.0762 M816.5479,1341.0762 L803.5479,1356.0762 M816.5479,1341.0762 L829.5479,1356.0762" fill="none" style="stroke:#181818;stroke-width:0.5;"/></g><g class="participant participant-head" data-participant="41"><rect fill="#E2E2F0" height="30.4883" rx="2.5" ry="2.5" style="stroke:#181818;stroke-width:0.5;" width="54.3936" x="1057.063" y="87.4883"/><text fill="#000000" font-family="sans-serif" font-size="14" lengthAdjust="spacing" textLength="40.3936" x="1064.063" y="108.0234">Nginx</text></g><g class="participant participant-tail" data-participant="41"><rect fill="#E2E2F0" height="30.4883" rx="2.5" ry="2.5" style="stroke:#181818;stroke-width:0.5;" width="54.3936" x="1057.063" y="1281.0879"/><text fill="#000000" font-family="sans-serif" font-size="14" lengthAdjust="spacing" textLength="40.3936" x="1064.063" y="1301.623">Nginx</text></g><g class="participant participant-head" data-participant="10"><rect fill="#E2E2F0" height="30.4883" rx="2.5" ry="2.5" style="stroke:#181818;stroke-width:0.5;" width="92.5176" x="1121.4565" y="87.4883"/><text fill="#000000" font-family="sans-serif" font-size="14" lengthAdjust="spacing" textLength="78.5176" x="1128.4565" y="108.0234">DataService</text></g><g class="participant participant-tail" data-participant="10"><rect fill="#E2E2F0" height="30.4883" rx="2.5" ry="2.5" style="stroke:#181818;stroke-width:0.5;" width="92.5176" x="1121.4565" y="1281.0879"/><text fill="#000000" font-family="sans-serif" font-size="14" lengthAdjust="spacing" textLength="78.5176" x="1128.4565" y="1301.623">DataService</text></g><g class="participant participant-head" data-participant="49"><rect fill="#E2E2F0" height="30.4883" rx="2.5" ry="2.5" style="stroke:#181818;stroke-width:0.5;" width="90.8496" x="1255.6733" y="87.4883"/><text fill="#000000" font-family="sans-serif" font-size="14" lengthAdjust="spacing" textLength="76.8496" x="1262.6733" y="108.0234">PostgreSQL</text></g><g class="participant participant-tail" data-participant="49"><rect fill="#E2E2F0" height="30.4883" rx="2.5" ry="2.5" style="stroke:#181818;stroke-width:0.5;" width="90.8496" x="1255.6733" y="1281.0879"/><text fill="#000000" font-family="sans-serif" font-size="14" lengthAdjust="spacing" textLength="76.8496" x="1262.6733" y="1301.623">PostgreSQL</text></g><g class="message" data-participant-1="2" data-participant-2="5"><polygon fill="#181818" points="249.7354,146.2871,259.7354,150.2871,249.7354,154.2871,253.7354,150.2871" style="stroke:#181818;stroke-width:1;"/><line style="stroke:#181818;stroke-width:1;" x1="18.5" x2="255.7354" y1="150.2871" y2="150.2871"/><text fill="#000000" font-family="sans-serif" font-size="13" lengthAdjust="spacing" textLength="219.2354" x="25.5" y="145.5449">starts with configuration password</text></g><g class="message" data-participant-1="5" data-participant-2="11"><polygon fill="#181818" points="457.5444,175.5977,467.5444,179.5977,457.5444,183.5977,461.5444,179.5977" style="stroke:#181818;stroke-width:1;"/><line style="stroke:#181818;stroke-width:1;" x1="261.7354" x2="463.5444" y1="179.5977" y2="179.5977"/><text fill="#000000" font-family="sans-serif" font-size="13" lengthAdjust="spacing" textLength="147.1323" x="268.7354" y="174.8555">check for configuration</text></g><g class="message" data-participant-1="5" data-participant-2="11"><polygon fill="#181818" points="457.5444,204.9082,467.5444,208.9082,457.5444,212.9082,461.5444,208.9082" style="stroke:#181818;stroke-width:1;"/><line style="stroke:#181818;stroke-width:1;" x1="261.7354" x2="463.5444" y1="208.9082" y2="208.9082"/><text fill="#000000" font-family="sans-serif" font-size="13" lengthAdjust="spacing" textLength="136.792" x="268.7354" y="204.166">create password hash</text></g><g class="message" data-participant-1="11" data-participant-2="17"><polygon fill="#181818" points="601.4517,234.2188,611.4517,238.2188,601.4517,242.2188,605.4517,238.2188" style="stroke:#181818;stroke-width:1;"/><line style="stroke:#181818;stroke-width:1;" x1="469.5444" x2="607.4517" y1="238.2188" y2="238.2188"/><text fill="#000000" font-family="sans-serif" font-size="13" lengthAdjust="spacing" textLength="65.2539" x="476.5444" y="233.4766">write hash</text></g><g class="message" data-participant-1="5" data-participant-2="12"><polygon fill="#181818" points="706.9771,263.5293,716.9771,267.5293,706.9771,271.5293,710.9771,267.5293" style="stroke:#181818;stroke-width:1;"/><line style="stroke:#181818;stroke-width:1;" x1="261.7354" x2="712.9771" y1="267.5293" y2="267.5293"/><text fill="#000000" font-family="sans-serif" font-size="13" lengthAdjust="spacing" textLength="193.0259" x="268.7354" y="262.7871">state change - Not Configured</text></g><g class="message" data-participant-1="5" data-participant-2="2"><polygon fill="#181818" points="29.5,292.8398,19.5,296.8398,29.5,300.8398,25.5,296.8398" style="stroke:#181818;stroke-width:1;"/><line style="stroke:#181818;stroke-width:1;" x1="23.5" x2="260.7354" y1="296.8398" y2="296.8398"/><text fill="#000000" font-family="sans-serif" font-size="13" lengthAdjust="spacing" textLength="124.0522" x="35.5" y="292.0977">successfully started</text></g><g class="message" data-participant-1="1" data-participant-2="41"><polygon fill="#181818" points="1072.2598,322.1504,1082.2598,326.1504,1072.2598,330.1504,1076.2598,326.1504" style="stroke:#181818;stroke-width:1;"/><line style="stroke:#181818;stroke-width:1;" x1="816.5479" x2="1078.2598" y1="326.1504" y2="326.1504"/><text fill="#000000" font-family="sans-serif" font-size="13" lengthAdjust="spacing" textLength="35.5913" x="823.5479" y="321.4082">GET /</text></g><g class="message" data-participant-1="41" data-participant-2="12"><polygon fill="#181818" points="729.9771,351.4609,719.9771,355.4609,729.9771,359.4609,725.9771,355.4609" style="stroke:#181818;stroke-width:1;"/><line style="stroke:#181818;stroke-width:1;" x1="723.9771" x2="1083.2598" y1="355.4609" y2="355.4609"/><text fill="#000000" font-family="sans-serif" font-size="13" lengthAdjust="spacing" textLength="119.8184" x="735.9771" y="350.7188">request index.html</text></g><g class="message" data-participant-1="12" data-participant-2="5"><polygon fill="#181818" points="272.7354,380.7715,262.7354,384.7715,272.7354,388.7715,268.7354,384.7715" style="stroke:#181818;stroke-width:1;"/><line style="stroke:#181818;stroke-width:1;" x1="266.7354" x2="717.9771" y1="384.7715" y2="384.7715"/><text fill="#000000" font-family="sans-serif" font-size="13" lengthAdjust="spacing" textLength="99.3789" x="278.7354" y="380.0293">load index.html</text></g><g class="message" data-participant-1="12" data-participant-2="41"><polygon fill="#181818" points="1072.2598,410.082,1082.2598,414.082,1072.2598,418.082,1076.2598,414.082" style="stroke:#181818;stroke-width:1;"/><line style="stroke:#181818;stroke-width:1;" x1="718.9771" x2="1078.2598" y1="414.082" y2="414.082"/><text fill="#000000" font-family="sans-serif" font-size="13" lengthAdjust="spacing" textLength="218.0229" x="725.9771" y="409.3398">send response - configuration.vue</text></g><g class="message" data-participant-1="41" data-participant-2="1"><polygon fill="#181818" points="827.5479,439.3926,817.5479,443.3926,827.5479,447.3926,823.5479,443.3926" style="stroke:#181818;stroke-width:1;"/><line style="stroke:#181818;stroke-width:1;" x1="821.5479" x2="1083.2598" y1="443.3926" y2="443.3926"/><text fill="#000000" font-family="sans-serif" font-size="13" lengthAdjust="spacing" textLength="97.6587" x="833.5479" y="438.6504">proxy response</text></g><g class="message" data-participant-1="1" data-participant-2="41"><polygon fill="#181818" points="1072.2598,468.7031,1082.2598,472.7031,1072.2598,476.7031,1076.2598,472.7031" style="stroke:#181818;stroke-width:1;"/><line style="stroke:#181818;stroke-width:1;" x1="816.5479" x2="1078.2598" y1="472.7031" y2="472.7031"/><text fill="#000000" font-family="sans-serif" font-size="13" lengthAdjust="spacing" textLength="154.6162" x="823.5479" y="467.9609">/POST /login {password}</text></g><g class="message" data-participant-1="41" data-participant-2="12"><polygon fill="#181818" points="729.9771,498.0137,719.9771,502.0137,729.9771,506.0137,725.9771,502.0137" style="stroke:#181818;stroke-width:1;"/><line style="stroke:#181818;stroke-width:1;" x1="723.9771" x2="1083.2598" y1="502.0137" y2="502.0137"/><text fill="#000000" font-family="sans-serif" font-size="13" lengthAdjust="spacing" textLength="51.9556" x="735.9771" y="497.2715">do login</text></g><g class="message" data-participant-1="12" data-participant-2="5"><polygon fill="#181818" points="272.7354,527.3242,262.7354,531.3242,272.7354,535.3242,268.7354,531.3242" style="stroke:#181818;stroke-width:1;"/><line style="stroke:#181818;stroke-width:1;" x1="266.7354" x2="717.9771" y1="531.3242" y2="531.3242"/><text fill="#000000" font-family="sans-serif" font-size="13" lengthAdjust="spacing" textLength="113.1216" x="278.7354" y="526.582">validate password</text></g><g class="message" data-participant-1="5" data-participant-2="11"><polygon fill="#181818" points="457.5444,556.6348,467.5444,560.6348,457.5444,564.6348,461.5444,560.6348" style="stroke:#181818;stroke-width:1;"/><line style="stroke:#181818;stroke-width:1;" x1="261.7354" x2="463.5444" y1="560.6348" y2="560.6348"/><text fill="#000000" font-family="sans-serif" font-size="13" lengthAdjust="spacing" textLength="183.8091" x="268.7354" y="555.8926">compare password with hash</text></g><g class="message" data-participant-1="5" data-participant-2="12"><polygon fill="#181818" points="706.9771,585.9453,716.9771,589.9453,706.9771,593.9453,710.9771,589.9453" style="stroke:#181818;stroke-width:1;"/><line style="stroke:#181818;stroke-width:1;" x1="261.7354" x2="712.9771" y1="589.9453" y2="589.9453"/><text fill="#000000" font-family="sans-serif" font-size="13" lengthAdjust="spacing" textLength="48.5088" x="268.7354" y="585.2031">success</text></g><g class="message" data-participant-1="12" data-participant-2="41"><polygon fill="#181818" points="1072.2598,615.2559,1082.2598,619.2559,1072.2598,623.2559,1076.2598,619.2559" style="stroke:#181818;stroke-width:1;"/><line style="stroke:#181818;stroke-width:1;" x1="718.9771" x2="1078.2598" y1="619.2559" y2="619.2559"/><text fill="#000000" font-family="sans-serif" font-size="13" lengthAdjust="spacing" textLength="91.5269" x="725.9771" y="614.5137">send response</text></g><g class="message" data-participant-1="41" data-participant-2="1"><polygon fill="#181818" points="827.5479,644.5664,817.5479,648.5664,827.5479,652.5664,823.5479,648.5664" style="stroke:#181818;stroke-width:1;"/><line style="stroke:#181818;stroke-width:1;" x1="821.5479" x2="1083.2598" y1="648.5664" y2="648.5664"/><text fill="#000000" font-family="sans-serif" font-size="13" lengthAdjust="spacing" textLength="136.8618" x="833.5479" y="643.8242">proxy response {json}</text></g><g class="message" data-participant-1="1" data-participant-2="41"><polygon fill="#181818" points="1072.2598,673.877,1082.2598,677.877,1072.2598,681.877,1076.2598,677.877" style="stroke:#181818;stroke-width:1;"/><line style="stroke:#181818;stroke-width:1;" x1="816.5479" x2="1078.2598" y1="677.877" y2="677.877"/><text fill="#000000" font-family="sans-serif" font-size="13" lengthAdjust="spacing" textLength="243.7119" x="823.5479" y="673.1348">POST /configure {json - database info}</text></g><g class="message" data-participant-1="41" data-participant-2="12"><polygon fill="#181818" points="729.9771,703.1875,719.9771,707.1875,729.9771,711.1875,725.9771,707.1875" style="stroke:#181818;stroke-width:1;"/><line style="stroke:#181818;stroke-width:1;" x1="723.9771" x2="1083.2598" y1="707.1875" y2="707.1875"/><text fill="#000000" font-family="sans-serif" font-size="13" lengthAdjust="spacing" textLength="104.876" x="735.9771" y="702.4453">do configuration</text></g><g class="message" data-participant-1="12" data-participant-2="5"><polygon fill="#181818" points="272.7354,732.498,262.7354,736.498,272.7354,740.498,268.7354,736.498" style="stroke:#181818;stroke-width:1;"/><line style="stroke:#181818;stroke-width:1;" x1="266.7354" x2="717.9771" y1="736.498" y2="736.498"/><text fill="#000000" font-family="sans-serif" font-size="13" lengthAdjust="spacing" textLength="116.4858" x="278.7354" y="731.7559">save configuration</text></g><g class="message" data-participant-1="5" data-participant-2="11"><polygon fill="#181818" points="457.5444,761.8086,467.5444,765.8086,457.5444,769.8086,461.5444,765.8086" style="stroke:#181818;stroke-width:1;"/><line style="stroke:#181818;stroke-width:1;" x1="261.7354" x2="463.5444" y1="765.8086" y2="765.8086"/><text fill="#000000" font-family="sans-serif" font-size="13" lengthAdjust="spacing" textLength="137.5981" x="268.7354" y="761.0664">validate configuration</text></g><g class="message" data-participant-1="11" data-participant-2="10"><polygon fill="#181818" points="1155.7153,791.1191,1165.7153,795.1191,1155.7153,799.1191,1159.7153,795.1191" style="stroke:#181818;stroke-width:1;"/><line style="stroke:#181818;stroke-width:1;" x1="469.5444" x2="1161.7153" y1="795.1191" y2="795.1191"/><text fill="#000000" font-family="sans-serif" font-size="13" lengthAdjust="spacing" textLength="112.3027" x="476.5444" y="790.377">test configuration</text></g><g class="message" data-participant-1="10" data-participant-2="49"><polygon fill="#181818" points="1289.0981,820.4297,1299.0981,824.4297,1289.0981,828.4297,1293.0981,824.4297" style="stroke:#181818;stroke-width:1;"/><line style="stroke:#181818;stroke-width:1;" x1="1167.7153" x2="1295.0981" y1="824.4297" y2="824.4297"/><text fill="#000000" font-family="sans-serif" font-size="13" lengthAdjust="spacing" textLength="97.062" x="1174.7153" y="819.6875">test connection</text></g><g class="message" data-participant-1="11" data-participant-2="17"><polygon fill="#181818" points="601.4517,849.7402,611.4517,853.7402,601.4517,857.7402,605.4517,853.7402" style="stroke:#181818;stroke-width:1;"/><line style="stroke:#181818;stroke-width:1;" x1="469.5444" x2="607.4517" y1="853.7402" y2="853.7402"/><text fill="#000000" font-family="sans-serif" font-size="13" lengthAdjust="spacing" textLength="119.9072" x="476.5444" y="848.998">write configuration</text></g><g class="message" data-participant-1="11" data-participant-2="5"><polygon fill="#181818" points="272.7354,879.0508,262.7354,883.0508,272.7354,887.0508,268.7354,883.0508" style="stroke:#181818;stroke-width:1;"/><line style="stroke:#181818;stroke-width:1;" x1="266.7354" x2="468.5444" y1="883.0508" y2="883.0508"/><text fill="#000000" font-family="sans-serif" font-size="13" lengthAdjust="spacing" textLength="128.9272" x="278.7354" y="878.3086">configuration stored</text></g><g class="message" data-participant-1="5" data-participant-2="12"><polygon fill="#181818" points="706.9771,908.3613,716.9771,912.3613,706.9771,916.3613,710.9771,912.3613" style="stroke:#181818;stroke-width:1;"/><line style="stroke:#181818;stroke-width:1;" x1="261.7354" x2="712.9771" y1="912.3613" y2="912.3613"/><text fill="#000000" font-family="sans-serif" font-size="13" lengthAdjust="spacing" textLength="166.4609" x="268.7354" y="907.6191">state change - Configured</text></g><g class="message" data-participant-1="12" data-participant-2="41"><polygon fill="#181818" points="1072.2598,937.6719,1082.2598,941.6719,1072.2598,945.6719,1076.2598,941.6719" style="stroke:#181818;stroke-width:1;"/><line style="stroke:#181818;stroke-width:1;" x1="718.9771" x2="1078.2598" y1="941.6719" y2="941.6719"/><text fill="#000000" font-family="sans-serif" font-size="13" lengthAdjust="spacing" textLength="203.29" x="725.9771" y="936.9297">send response - installation.vue</text></g><g class="message" data-participant-1="41" data-participant-2="1"><polygon fill="#181818" points="827.5479,966.9824,817.5479,970.9824,827.5479,974.9824,823.5479,970.9824" style="stroke:#181818;stroke-width:1;"/><line style="stroke:#181818;stroke-width:1;" x1="821.5479" x2="1083.2598" y1="970.9824" y2="970.9824"/><text fill="#000000" font-family="sans-serif" font-size="13" lengthAdjust="spacing" textLength="136.8618" x="833.5479" y="966.2402">proxy response {json}</text></g><g class="message" data-participant-1="1" data-participant-2="41"><polygon fill="#181818" points="1072.2598,996.293,1082.2598,1000.293,1072.2598,1004.293,1076.2598,1000.293" style="stroke:#181818;stroke-width:1;"/><line style="stroke:#181818;stroke-width:1;" x1="816.5479" x2="1078.2598" y1="1000.293" y2="1000.293"/><text fill="#000000" font-family="sans-serif" font-size="13" lengthAdjust="spacing" textLength="210.4692" x="823.5479" y="995.5508">POST /install {json - site options}</text></g><g class="message" data-participant-1="41" data-participant-2="12"><polygon fill="#181818" points="729.9771,1025.6035,719.9771,1029.6035,729.9771,1033.6035,725.9771,1029.6035" style="stroke:#181818;stroke-width:1;"/><line style="stroke:#181818;stroke-width:1;" x1="723.9771" x2="1083.2598" y1="1029.6035" y2="1029.6035"/><text fill="#000000" font-family="sans-serif" font-size="13" lengthAdjust="spacing" textLength="90.1431" x="735.9771" y="1024.8613">do installation</text></g><g class="message" data-participant-1="12" data-participant-2="5"><polygon fill="#181818" points="272.7354,1054.9141,262.7354,1058.9141,272.7354,1062.9141,268.7354,1058.9141" style="stroke:#181818;stroke-width:1;"/><line style="stroke:#181818;stroke-width:1;" x1="266.7354" x2="717.9771" y1="1058.9141" y2="1058.9141"/><text fill="#000000" font-family="sans-serif" font-size="13" lengthAdjust="spacing" textLength="38.0098" x="278.7354" y="1054.1719">install</text></g><g class="message" data-participant-1="5" data-participant-2="11"><polygon fill="#181818" points="457.5444,1084.2246,467.5444,1088.2246,457.5444,1092.2246,461.5444,1088.2246" style="stroke:#181818;stroke-width:1;"/><line style="stroke:#181818;stroke-width:1;" x1="261.7354" x2="463.5444" y1="1088.2246" y2="1088.2246"/><text fill="#000000" font-family="sans-serif" font-size="13" lengthAdjust="spacing" textLength="127.0737" x="268.7354" y="1083.4824">validate site options</text></g><g class="message" data-participant-1="11" data-participant-2="10"><polygon fill="#181818" points="1155.7153,1113.5352,1165.7153,1117.5352,1155.7153,1121.5352,1159.7153,1117.5352" style="stroke:#181818;stroke-width:1;"/><line style="stroke:#181818;stroke-width:1;" x1="469.5444" x2="1161.7153" y1="1117.5352" y2="1117.5352"/><text fill="#000000" font-family="sans-serif" font-size="13" lengthAdjust="spacing" textLength="110.2207" x="476.5444" y="1112.793">store site options</text></g><g class="message" data-participant-1="10" data-participant-2="49"><polygon fill="#181818" points="1289.0981,1142.8457,1299.0981,1146.8457,1289.0981,1150.8457,1293.0981,1146.8457" style="stroke:#181818;stroke-width:1;"/><line style="stroke:#181818;stroke-width:1;" x1="1167.7153" x2="1295.0981" y1="1146.8457" y2="1146.8457"/><text fill="#000000" font-family="sans-serif" font-size="13" lengthAdjust="spacing" textLength="109.3828" x="1174.7153" y="1142.1035">write site options</text></g><g class="message" data-participant-1="11" data-participant-2="5"><polygon fill="#181818" points="272.7354,1172.1563,262.7354,1176.1563,272.7354,1180.1563,268.7354,1176.1563" style="stroke:#181818;stroke-width:1;"/><line style="stroke:#181818;stroke-width:1;" x1="266.7354" x2="468.5444" y1="1176.1563" y2="1176.1563"/><text fill="#000000" font-family="sans-serif" font-size="13" lengthAdjust="spacing" textLength="53.4346" x="278.7354" y="1171.4141">installed</text></g><g class="message" data-participant-1="5" data-participant-2="12"><polygon fill="#181818" points="706.9771,1201.4668,716.9771,1205.4668,706.9771,1209.4668,710.9771,1205.4668" style="stroke:#181818;stroke-width:1;"/><line style="stroke:#181818;stroke-width:1;" x1="261.7354" x2="712.9771" y1="1205.4668" y2="1205.4668"/><text fill="#000000" font-family="sans-serif" font-size="13" lengthAdjust="spacing" textLength="133.5737" x="268.7354" y="1200.7246">state change - Ready</text></g><g class="message" data-participant-1="12" data-participant-2="41"><polygon fill="#181818" points="1072.2598,1230.7773,1082.2598,1234.7773,1072.2598,1238.7773,1076.2598,1234.7773" style="stroke:#181818;stroke-width:1;"/><line style="stroke:#181818;stroke-width:1;" x1="718.9771" x2="1078.2598" y1="1234.7773" y2="1234.7773"/><text fill="#000000" font-family="sans-serif" font-size="13" lengthAdjust="spacing" textLength="91.5269" x="725.9771" y="1230.0352">send response</text></g><g class="message" data-participant-1="41" data-participant-2="1"><polygon fill="#181818" points="827.5479,1260.0879,817.5479,1264.0879,827.5479,1268.0879,823.5479,1264.0879" style="stroke:#181818;stroke-width:1;"/><line style="stroke:#181818;stroke-width:1;" x1="821.5479" x2="1083.2598" y1="1264.0879" y2="1264.0879"/><text fill="#000000" font-family="sans-serif" font-size="13" lengthAdjust="spacing" textLength="136.8618" x="833.5479" y="1259.3457">proxy response {json}</text></g><!--SRC=[dLHDRzim3BtxLn2vfus314Lt631amp1WxRfwmCwipDZQ7CaJvNoWw7-VBCMEx2Kvx1Y-H_Az9pfMsehWPocv9hDwoAPV55kiAhHIgsb6VnfIWf84XTK69jnC01dcIOt6IY5hL1OcAst8rvV3UcRThwP-G8K56Sz8qo7bWocqcWVeRWWzjylP3hhddH3CDrA5sh3hiP1gxu752Fc85ZCoMoc2s7Gsn9yqsy9GzlrhQBzFaZbCtyCItW6tJXXsqfOWj5hBeZ4-8gYHUQTDdYnRRfewiYX9_8QrapcWnWn3QAdlXHAvJ1pIudSEtndfO5yDJVEWmHL5YQeWcCAZjh0wpgVZUazhX23cTLDLXw3ReNxqebtz-TCFk4qMQJ_MX9X1gfpsDwNTL4dQ-wuqvlyYVX2JobqprrfngsVWzMRRKBV4SMkZzuUU7AcvVVgMEJsLTgy6hrqURx6-N8E78rLRh6GU1nX7gpVkLQDi_PkDemmPNRHpKJgy_cAjtY87mK1d_aXmSJXz-8AkGwgr7XiQtiN96EEMBXvDxthK7IRF7CEsxpX2PrxfVOGg4d7ZwTxEpLtwIEE3P_VzTVTsxYwZcxnoBJBwcxbwB9SIFmxey-RMWQxRUJoEEruMfNqiduiudXOdxCsFq5F28SOplT6sQz4z4-Q7_pxAlm00]--></g></svg>