<svg xmlns="http://www.w3.org/2000/svg" xmlns:xlink="http://www.w3.org/1999/xlink" contentStyleType="text/css" data-diagram-type="SEQUENCE" height="1040px" preserveAspectRatio="none" style="width:1150px;height:1040px;background:#FFFFFF;" version="1.1" viewBox="0 0 1150 1040" width="1150px" zoomAndPan="magnify"><title>WhisperCMS-Startup-Sequence</title><defs/><g><text fill="#000000" font-family="sans-serif" font-size="14" font-weight="bold" lengthAdjust="spacing" textLength="226.8574" x="460.7485" y="28.5352">WhisperCMS-Startup-Sequence</text><g><title>su</title><rect fill="#000000" fill-opacity="0.00000" height="840.6953" width="8" x="14.5" y="118.9766"/><line style="stroke:#181818;stroke-width:0.5;stroke-dasharray:5,5;" x1="18" x2="18" y1="118.9766" y2="959.6719"/></g><g><title>RequestManager</title><rect fill="#000000" fill-opacity="0.00000" height="840.6953" width="8" x="162.5522" y="118.9766"/><line style="stroke:#181818;stroke-width:0.5;stroke-dasharray:5,5;" x1="166.1558" x2="166.1558" y1="118.9766" y2="959.6719"/></g><g><title>StartupManager</title><rect fill="#000000" fill-opacity="0.00000" height="840.6953" width="8" x="427.6108" y="118.9766"/><line style="stroke:#181818;stroke-width:0.5;stroke-dasharray:5,5;" x1="430.8906" x2="430.8906" y1="118.9766" y2="959.6719"/></g><g><title>admin</title><rect fill="#000000" fill-opacity="0.00000" height="840.6953" width="8" x="522.5054" y="118.9766"/><line style="stroke:#181818;stroke-width:0.5;stroke-dasharray:5,5;" x1="526.3311" x2="526.3311" y1="118.9766" y2="959.6719"/></g><g><title>Nginx</title><rect fill="#000000" fill-opacity="0.00000" height="840.6953" width="8" x="721.4214" y="118.9766"/><line style="stroke:#181818;stroke-width:0.5;stroke-dasharray:5,5;" x1="725.2246" x2="725.2246" y1="118.9766" y2="959.6719"/></g><g><title>DataService</title><rect fill="#000000" fill-opacity="0.00000" height="840.6953" width="8" x="804.877" y="118.9766"/><line style="stroke:#181818;stroke-width:0.5;stroke-dasharray:5,5;" x1="808.6182" x2="808.6182" y1="118.9766" y2="959.6719"/></g><g><title>LibSQL</title><rect fill="#000000" fill-opacity="0.00000" height="840.6953" width="8" x="984.9849" y="118.9766"/><line style="stroke:#181818;stroke-width:0.5;stroke-dasharray:5,5;" x1="988.8828" x2="988.8828" y1="118.9766" y2="959.6719"/></g><g><title>ContentService</title><rect fill="#000000" fill-opacity="0.00000" height="840.6953" width="8" x="1082.7207" y="118.9766"/><line style="stroke:#181818;stroke-width:0.5;stroke-dasharray:5,5;" x1="1086.0869" x2="1086.0869" y1="118.9766" y2="959.6719"/></g><g class="participant participant-head" data-participant="2"><text fill="#000000" font-family="sans-serif" font-size="14" lengthAdjust="spacing" textLength="15.8252" x="7.5874" y="116.0234">su</text><ellipse cx="18.5" cy="50.9883" fill="#E2E2F0" rx="8" ry="8" style="stroke:#181818;stroke-width:0.5;"/><path d="M18.5,58.9883 L18.5,85.9883 M5.5,66.9883 L31.5,66.9883 M18.5,85.9883 L5.5,100.9883 M18.5,85.9883 L31.5,100.9883" fill="none" style="stroke:#181818;stroke-width:0.5;"/></g><g class="participant participant-tail" data-participant="2"><text fill="#000000" font-family="sans-serif" font-size="14" lengthAdjust="spacing" textLength="15.8252" x="7.5874" y="972.207">su</text><ellipse cx="18.5" cy="983.6602" fill="#E2E2F0" rx="8" ry="8" style="stroke:#181818;stroke-width:0.5;"/><path d="M18.5,991.6602 L18.5,1018.6602 M5.5,999.6602 L31.5,999.6602 M18.5,1018.6602 L5.5,1033.6602 M18.5,1018.6602 L31.5,1033.6602" fill="none" style="stroke:#181818;stroke-width:0.5;"/></g><g class="participant participant-head" data-participant="11"><rect fill="#E2E2F0" height="30.4883" rx="2.5" ry="2.5" style="stroke:#181818;stroke-width:0.5;" width="126.793" x="103.1558" y="87.4883"/><text fill="#000000" font-family="sans-serif" font-size="14" lengthAdjust="spacing" textLength="112.793" x="110.1558" y="108.0234">RequestManager</text></g><g class="participant participant-tail" data-participant="11"><rect fill="#E2E2F0" height="30.4883" rx="2.5" ry="2.5" style="stroke:#181818;stroke-width:0.5;" width="126.793" x="103.1558" y="958.6719"/><text fill="#000000" font-family="sans-serif" font-size="14" lengthAdjust="spacing" textLength="112.793" x="110.1558" y="979.207">RequestManager</text></g><g class="participant participant-head" data-participant="10"><rect fill="#E2E2F0" height="30.4883" rx="2.5" ry="2.5" style="stroke:#181818;stroke-width:0.5;" width="121.4404" x="370.8906" y="87.4883"/><text fill="#000000" font-family="sans-serif" font-size="14" lengthAdjust="spacing" textLength="107.4404" x="377.8906" y="108.0234">StartupManager</text></g><g class="participant participant-tail" data-participant="10"><rect fill="#E2E2F0" height="30.4883" rx="2.5" ry="2.5" style="stroke:#181818;stroke-width:0.5;" width="121.4404" x="370.8906" y="958.6719"/><text fill="#000000" font-family="sans-serif" font-size="14" lengthAdjust="spacing" textLength="107.4404" x="377.8906" y="979.207">StartupManager</text></g><g class="participant participant-head" data-participant="1"><text fill="#000000" font-family="sans-serif" font-size="14" lengthAdjust="spacing" textLength="42.3486" x="502.3311" y="116.0234">admin</text><ellipse cx="526.5054" cy="50.9883" fill="#E2E2F0" rx="8" ry="8" style="stroke:#181818;stroke-width:0.5;"/><path d="M526.5054,58.9883 L526.5054,85.9883 M513.5054,66.9883 L539.5054,66.9883 M526.5054,85.9883 L513.5054,100.9883 M526.5054,85.9883 L539.5054,100.9883" fill="none" style="stroke:#181818;stroke-width:0.5;"/></g><g class="participant participant-tail" data-participant="1"><text fill="#000000" font-family="sans-serif" font-size="14" lengthAdjust="spacing" textLength="42.3486" x="502.3311" y="972.207">admin</text><ellipse cx="526.5054" cy="983.6602" fill="#E2E2F0" rx="8" ry="8" style="stroke:#181818;stroke-width:0.5;"/><path d="M526.5054,991.6602 L526.5054,1018.6602 M513.5054,999.6602 L539.5054,999.6602 M526.5054,1018.6602 L513.5054,1033.6602 M526.5054,1018.6602 L539.5054,1033.6602" fill="none" style="stroke:#181818;stroke-width:0.5;"/></g><g class="participant participant-head" data-participant="39"><rect fill="#E2E2F0" height="30.4883" rx="2.5" ry="2.5" style="stroke:#181818;stroke-width:0.5;" width="54.3936" x="698.2246" y="87.4883"/><text fill="#000000" font-family="sans-serif" font-size="14" lengthAdjust="spacing" textLength="40.3936" x="705.2246" y="108.0234">Nginx</text></g><g class="participant participant-tail" data-participant="39"><rect fill="#E2E2F0" height="30.4883" rx="2.5" ry="2.5" style="stroke:#181818;stroke-width:0.5;" width="54.3936" x="698.2246" y="958.6719"/><text fill="#000000" font-family="sans-serif" font-size="14" lengthAdjust="spacing" textLength="40.3936" x="705.2246" y="979.207">Nginx</text></g><g class="participant participant-head" data-participant="9"><rect fill="#E2E2F0" height="30.4883" rx="2.5" ry="2.5" style="stroke:#181818;stroke-width:0.5;" width="92.5176" x="762.6182" y="87.4883"/><text fill="#000000" font-family="sans-serif" font-size="14" lengthAdjust="spacing" textLength="78.5176" x="769.6182" y="108.0234">DataService</text></g><g class="participant participant-tail" data-participant="9"><rect fill="#E2E2F0" height="30.4883" rx="2.5" ry="2.5" style="stroke:#181818;stroke-width:0.5;" width="92.5176" x="762.6182" y="958.6719"/><text fill="#000000" font-family="sans-serif" font-size="14" lengthAdjust="spacing" textLength="78.5176" x="769.6182" y="979.207">DataService</text></g><g class="participant participant-head" data-participant="47"><rect fill="#E2E2F0" height="30.4883" rx="2.5" ry="2.5" style="stroke:#181818;stroke-width:0.5;" width="60.2041" x="958.8828" y="87.4883"/><text fill="#000000" font-family="sans-serif" font-size="14" lengthAdjust="spacing" textLength="46.2041" x="965.8828" y="108.0234">LibSQL</text></g><g class="participant participant-tail" data-participant="47"><rect fill="#E2E2F0" height="30.4883" rx="2.5" ry="2.5" style="stroke:#181818;stroke-width:0.5;" width="60.2041" x="958.8828" y="958.6719"/><text fill="#000000" font-family="sans-serif" font-size="14" lengthAdjust="spacing" textLength="46.2041" x="965.8828" y="979.207">LibSQL</text></g><g class="participant participant-head" data-participant="8"><rect fill="#E2E2F0" height="30.4883" rx="2.5" ry="2.5" style="stroke:#181818;stroke-width:0.5;" width="115.2676" x="1029.0869" y="87.4883"/><text fill="#000000" font-family="sans-serif" font-size="14" lengthAdjust="spacing" textLength="101.2676" x="1036.0869" y="108.0234">ContentService</text></g><g class="participant participant-tail" data-participant="8"><rect fill="#E2E2F0" height="30.4883" rx="2.5" ry="2.5" style="stroke:#181818;stroke-width:0.5;" width="115.2676" x="1029.0869" y="958.6719"/><text fill="#000000" font-family="sans-serif" font-size="14" lengthAdjust="spacing" textLength="101.2676" x="1036.0869" y="979.207">ContentService</text></g><g class="message" data-participant-1="2" data-participant-2="11"><polygon fill="#181818" points="154.5522,146.2871,164.5522,150.2871,154.5522,154.2871,158.5522,150.2871" style="stroke:#181818;stroke-width:1;"/><line style="stroke:#181818;stroke-width:1;" x1="18.5" x2="160.5522" y1="150.2871" y2="150.2871"/><text fill="#000000" font-family="sans-serif" font-size="13" lengthAdjust="spacing" textLength="111.2744" x="25.5" y="145.5449">(cli arg)-&gt;(Ready)</text></g><g class="message" data-participant-1="11" data-participant-2="10"><polygon fill="#181818" points="419.6108,175.5977,429.6108,179.5977,419.6108,183.5977,423.6108,179.5977" style="stroke:#181818;stroke-width:1;"/><line style="stroke:#181818;stroke-width:1;" x1="166.5522" x2="425.6108" y1="179.5977" y2="179.5977"/><text fill="#000000" font-family="sans-serif" font-size="13" lengthAdjust="spacing" textLength="224.9419" x="173.5522" y="174.8555">(cli arg)-&gt;(Settings | Config | None)</text></g><g class="message" data-participant-1="1" data-participant-2="39"><polygon fill="#181818" points="713.4214,204.9082,723.4214,208.9082,713.4214,212.9082,717.4214,208.9082" style="stroke:#181818;stroke-width:1;"/><line style="stroke:#181818;stroke-width:1;" x1="526.5054" x2="719.4214" y1="208.9082" y2="208.9082"/><text fill="#000000" font-family="sans-serif" font-size="13" lengthAdjust="spacing" textLength="35.5913" x="533.5054" y="204.166">GET /</text></g><g class="message" data-participant-1="39" data-participant-2="11"><polygon fill="#181818" points="177.5522,234.2188,167.5522,238.2188,177.5522,242.2188,173.5522,238.2188" style="stroke:#181818;stroke-width:1;"/><line style="stroke:#181818;stroke-width:1;" x1="171.5522" x2="724.4214" y1="238.2188" y2="238.2188"/><text fill="#000000" font-family="sans-serif" font-size="13" lengthAdjust="spacing" textLength="119.8184" x="183.5522" y="233.4766">request index.html</text></g><g class="message" data-participant-1="11" data-participant-2="39"><polygon fill="#181818" points="713.4214,263.5293,723.4214,267.5293,713.4214,271.5293,717.4214,267.5293" style="stroke:#181818;stroke-width:1;"/><line style="stroke:#181818;stroke-width:1;" x1="166.5522" x2="719.4214" y1="267.5293" y2="267.5293"/><text fill="#000000" font-family="sans-serif" font-size="13" lengthAdjust="spacing" textLength="105.022" x="173.5522" y="262.7871">200 - login.html</text></g><g class="message" data-participant-1="39" data-participant-2="1"><polygon fill="#181818" points="537.5054,292.8398,527.5054,296.8398,537.5054,300.8398,533.5054,296.8398" style="stroke:#181818;stroke-width:1;"/><line style="stroke:#181818;stroke-width:1;" x1="531.5054" x2="724.4214" y1="296.8398" y2="296.8398"/><text fill="#000000" font-family="sans-serif" font-size="13" lengthAdjust="spacing" textLength="97.6587" x="543.5054" y="292.0977">proxy response</text></g><g class="message" data-participant-1="1" data-participant-2="39"><polygon fill="#181818" points="713.4214,322.1504,723.4214,326.1504,713.4214,330.1504,717.4214,326.1504" style="stroke:#181818;stroke-width:1;"/><line style="stroke:#181818;stroke-width:1;" x1="526.5054" x2="719.4214" y1="326.1504" y2="326.1504"/><text fill="#000000" font-family="sans-serif" font-size="13" lengthAdjust="spacing" textLength="154.6162" x="533.5054" y="321.4082">/POST /login {password}</text></g><g class="message" data-participant-1="39" data-participant-2="11"><polygon fill="#181818" points="177.5522,351.4609,167.5522,355.4609,177.5522,359.4609,173.5522,355.4609" style="stroke:#181818;stroke-width:1;"/><line style="stroke:#181818;stroke-width:1;" x1="171.5522" x2="724.4214" y1="355.4609" y2="355.4609"/><text fill="#000000" font-family="sans-serif" font-size="13" lengthAdjust="spacing" textLength="51.9556" x="183.5522" y="350.7188">do login</text></g><g class="message" data-participant-1="11" data-participant-2="10"><polygon fill="#181818" points="419.6108,380.7715,429.6108,384.7715,419.6108,388.7715,423.6108,384.7715" style="stroke:#181818;stroke-width:1;"/><line style="stroke:#181818;stroke-width:1;" x1="166.5522" x2="425.6108" y1="384.7715" y2="384.7715"/><text fill="#000000" font-family="sans-serif" font-size="13" lengthAdjust="spacing" textLength="241.0586" x="173.5522" y="380.0293">(Password)-&gt;(Settings| Config | None)</text></g><g class="message" data-participant-1="11" data-participant-2="39"><polygon fill="#181818" points="713.4214,410.082,723.4214,414.082,713.4214,418.082,717.4214,414.082" style="stroke:#181818;stroke-width:1;"/><line style="stroke:#181818;stroke-width:1;" x1="166.5522" x2="719.4214" y1="414.082" y2="414.082"/><text fill="#000000" font-family="sans-serif" font-size="13" lengthAdjust="spacing" textLength="157.9424" x="173.5522" y="409.3398">200 - configuration.html</text></g><g class="message" data-participant-1="39" data-participant-2="1"><polygon fill="#181818" points="537.5054,439.3926,527.5054,443.3926,537.5054,447.3926,533.5054,443.3926" style="stroke:#181818;stroke-width:1;"/><line style="stroke:#181818;stroke-width:1;" x1="531.5054" x2="724.4214" y1="443.3926" y2="443.3926"/><text fill="#000000" font-family="sans-serif" font-size="13" lengthAdjust="spacing" textLength="97.6587" x="543.5054" y="438.6504">proxy response</text></g><g class="message" data-participant-1="1" data-participant-2="39"><polygon fill="#181818" points="713.4214,468.7031,723.4214,472.7031,713.4214,476.7031,717.4214,472.7031" style="stroke:#181818;stroke-width:1;"/><line style="stroke:#181818;stroke-width:1;" x1="526.5054" x2="719.4214" y1="472.7031" y2="472.7031"/><text fill="#000000" font-family="sans-serif" font-size="13" lengthAdjust="spacing" textLength="174.916" x="533.5054" y="467.9609">POST /configure {form info}</text></g><g class="message" data-participant-1="39" data-participant-2="11"><polygon fill="#181818" points="177.5522,498.0137,167.5522,502.0137,177.5522,506.0137,173.5522,502.0137" style="stroke:#181818;stroke-width:1;"/><line style="stroke:#181818;stroke-width:1;" x1="171.5522" x2="724.4214" y1="502.0137" y2="502.0137"/><text fill="#000000" font-family="sans-serif" font-size="13" lengthAdjust="spacing" textLength="116.4858" x="183.5522" y="497.2715">save configuration</text></g><g class="message" data-participant-1="11" data-participant-2="10"><polygon fill="#181818" points="419.6108,527.3242,429.6108,531.3242,419.6108,535.3242,423.6108,531.3242" style="stroke:#181818;stroke-width:1;"/><line style="stroke:#181818;stroke-width:1;" x1="166.5522" x2="425.6108" y1="531.3242" y2="531.3242"/><text fill="#000000" font-family="sans-serif" font-size="13" lengthAdjust="spacing" textLength="210.7168" x="173.5522" y="526.582">(ConfigData)-&gt;(Settings | Config)</text></g><g class="message" data-participant-1="10" data-participant-2="9"><polygon fill="#181818" points="796.877,556.6348,806.877,560.6348,796.877,564.6348,800.877,560.6348" style="stroke:#181818;stroke-width:1;"/><line style="stroke:#181818;stroke-width:1;" x1="431.6108" x2="802.877" y1="560.6348" y2="560.6348"/><text fill="#000000" font-family="sans-serif" font-size="13" lengthAdjust="spacing" textLength="147.1069" x="438.6108" y="555.8926">(ConfigData)-&gt;(Config)</text></g><g class="message" data-participant-1="9" data-participant-2="47"><polygon fill="#181818" points="976.9849,585.9453,986.9849,589.9453,976.9849,593.9453,980.9849,589.9453" style="stroke:#181818;stroke-width:1;"/><line style="stroke:#181818;stroke-width:1;" x1="808.877" x2="982.9849" y1="589.9453" y2="589.9453"/><text fill="#000000" font-family="sans-serif" font-size="13" lengthAdjust="spacing" textLength="156.1079" x="815.877" y="585.2031">(Statement)-&gt;(ResultSet)</text></g><g class="message" data-participant-1="11" data-participant-2="39"><polygon fill="#181818" points="713.4214,615.2559,723.4214,619.2559,713.4214,623.2559,717.4214,619.2559" style="stroke:#181818;stroke-width:1;"/><line style="stroke:#181818;stroke-width:1;" x1="166.5522" x2="719.4214" y1="619.2559" y2="619.2559"/><text fill="#000000" font-family="sans-serif" font-size="13" lengthAdjust="spacing" textLength="143.2095" x="173.5522" y="614.5137">200 - installation.html</text></g><g class="message" data-participant-1="39" data-participant-2="1"><polygon fill="#181818" points="537.5054,644.5664,527.5054,648.5664,537.5054,652.5664,533.5054,648.5664" style="stroke:#181818;stroke-width:1;"/><line style="stroke:#181818;stroke-width:1;" x1="531.5054" x2="724.4214" y1="648.5664" y2="648.5664"/><text fill="#000000" font-family="sans-serif" font-size="13" lengthAdjust="spacing" textLength="97.6587" x="543.5054" y="643.8242">proxy response</text></g><g class="message" data-participant-1="1" data-participant-2="39"><polygon fill="#181818" points="713.4214,673.877,723.4214,677.877,713.4214,681.877,717.4214,677.877" style="stroke:#181818;stroke-width:1;"/><line style="stroke:#181818;stroke-width:1;" x1="526.5054" x2="719.4214" y1="677.877" y2="677.877"/><text fill="#000000" font-family="sans-serif" font-size="13" lengthAdjust="spacing" textLength="168.0859" x="533.5054" y="673.1348">POST /install {site options}</text></g><g class="message" data-participant-1="39" data-participant-2="11"><polygon fill="#181818" points="177.5522,703.1875,167.5522,707.1875,177.5522,711.1875,173.5522,707.1875" style="stroke:#181818;stroke-width:1;"/><line style="stroke:#181818;stroke-width:1;" x1="171.5522" x2="724.4214" y1="707.1875" y2="707.1875"/><text fill="#000000" font-family="sans-serif" font-size="13" lengthAdjust="spacing" textLength="90.1431" x="183.5522" y="702.4453">do installation</text></g><g class="message" data-participant-1="11" data-participant-2="10"><polygon fill="#181818" points="419.6108,732.498,429.6108,736.498,419.6108,740.498,423.6108,736.498" style="stroke:#181818;stroke-width:1;"/><line style="stroke:#181818;stroke-width:1;" x1="166.5522" x2="425.6108" y1="736.498" y2="736.498"/><text fill="#000000" font-family="sans-serif" font-size="13" lengthAdjust="spacing" textLength="164.7788" x="173.5522" y="731.7559">(SettingsData)-&gt;(Settings)</text></g><g class="message" data-participant-1="10" data-participant-2="9"><polygon fill="#181818" points="796.877,761.8086,806.877,765.8086,796.877,769.8086,800.877,765.8086" style="stroke:#181818;stroke-width:1;"/><line style="stroke:#181818;stroke-width:1;" x1="431.6108" x2="802.877" y1="765.8086" y2="765.8086"/><text fill="#000000" font-family="sans-serif" font-size="13" lengthAdjust="spacing" textLength="158.1519" x="438.6108" y="761.0664">(SettingData)-&gt;(Settings)</text></g><g class="message" data-participant-1="9" data-participant-2="47"><polygon fill="#181818" points="976.9849,791.1191,986.9849,795.1191,976.9849,799.1191,980.9849,795.1191" style="stroke:#181818;stroke-width:1;"/><line style="stroke:#181818;stroke-width:1;" x1="808.877" x2="982.9849" y1="795.1191" y2="795.1191"/><text fill="#000000" font-family="sans-serif" font-size="13" lengthAdjust="spacing" textLength="156.1079" x="815.877" y="790.377">(Statement)-&gt;(ResultSet)</text></g><g class="message" data-participant-1="11" data-participant-2="10"><polygon fill="#181818" points="419.6108,820.4297,429.6108,824.4297,419.6108,828.4297,423.6108,824.4297" style="stroke:#181818;stroke-width:1;"/><line style="stroke:#181818;stroke-width:1;" x1="166.5522" x2="425.6108" y1="824.4297" y2="824.4297"/><text fill="#000000" font-family="sans-serif" font-size="13" lengthAdjust="spacing" textLength="125.4106" x="173.5522" y="819.6875">(Settings)-&gt;(Kernel)</text></g><g class="message" data-participant-1="11" data-participant-2="8"><polygon fill="#181818" points="1074.7207,849.7402,1084.7207,853.7402,1074.7207,857.7402,1078.7207,853.7402" style="stroke:#181818;stroke-width:1;"/><line style="stroke:#181818;stroke-width:1;" x1="166.5522" x2="1080.7207" y1="853.7402" y2="853.7402"/><text fill="#000000" font-family="sans-serif" font-size="13" lengthAdjust="spacing" textLength="112.4995" x="173.5522" y="848.998">(Kernel)-&gt;(Ready)</text></g><g class="message" data-participant-1="11" data-participant-2="2"><polygon fill="#181818" points="29.5,879.0508,19.5,883.0508,29.5,887.0508,25.5,883.0508" style="stroke:#181818;stroke-width:1;"/><line style="stroke:#181818;stroke-width:1;" x1="23.5" x2="165.5522" y1="883.0508" y2="883.0508"/><text fill="#000000" font-family="sans-serif" font-size="13" lengthAdjust="spacing" textLength="124.0522" x="35.5" y="878.3086">successfully started</text></g><g class="message" data-participant-1="11" data-participant-2="39"><polygon fill="#181818" points="713.4214,908.3613,723.4214,912.3613,713.4214,916.3613,717.4214,912.3613" style="stroke:#181818;stroke-width:1;"/><line style="stroke:#181818;stroke-width:1;" x1="166.5522" x2="719.4214" y1="912.3613" y2="912.3613"/><text fill="#000000" font-family="sans-serif" font-size="13" lengthAdjust="spacing" textLength="47.2266" x="173.5522" y="907.6191">303 - /</text></g><g class="message" data-participant-1="39" data-participant-2="1"><polygon fill="#181818" points="537.5054,937.6719,527.5054,941.6719,537.5054,945.6719,533.5054,941.6719" style="stroke:#181818;stroke-width:1;"/><line style="stroke:#181818;stroke-width:1;" x1="531.5054" x2="724.4214" y1="941.6719" y2="941.6719"/><text fill="#000000" font-family="sans-serif" font-size="13" lengthAdjust="spacing" textLength="97.6587" x="543.5054" y="936.9297">proxy response</text></g><!--SRC=[dLDDJ-Cm4BtdLunwWaDeQ96WU-02Q0yBB4jMshCtcGPBhftrJDXMtVtlZFCXnMcH43VBxysRzsPircmGVhregj7VFEHfpifpKwSv_cdG5fWagc3dOKRD31J18gc5e0jTAyimUmuquWTbLOM-PPoVnvHUCQ9aWwegDzfsTt7LOwNjjWMMgnYvLQnozA-wm1QVmFVwT_xZlaKkBcFenbb6o-FYgoHPG7ejfk4Bd1H6W_BLQNfzyeogt9qcSX_GR8BcoAnjHV0FH7IjApayEejI4FZBbV2_tls4UIB7GTvtim9jIzoUlV36zF8jVP5ba89nahl3-ag1Qk-sEocdsbd2KOlvq_TSchH5iAyLqL_do__ZfgNhDACaJprp7EKmoTHRqUADLwpTnprs5eTQXFtQ-OtCOEqYdwHUCUuGEUwyXTKV7R-upG9vTSWT26shYyj0a1V9k96Nq2sQ6YDlWeyarfPO6VEPm7qfx4apWgk314qtCzQFuWu1fu6ZdFtb8UV3KUDcWV8DlKKpu5S1xg-cVs8HbjOK1HAj6sDsGE6VOpcUuZ9RoXJdxqxj3G00]--></g></svg>