<svg xmlns="http://www.w3.org/2000/svg" xmlns:xlink="http://www.w3.org/1999/xlink" contentStyleType="text/css" data-diagram-type="SEQUENCE" height="513px" preserveAspectRatio="none" style="width:964px;height:513px;background:#FFFFFF;" version="1.1" viewBox="0 0 964 513" width="964px" zoomAndPan="magnify"><title>WhisperCMS-Startup-Sequence</title><defs/><g><text fill="#000000" font-family="sans-serif" font-size="14" font-weight="bold" lengthAdjust="spacing" textLength="226.8574" x="368.0161" y="28.5352">WhisperCMS-Startup-Sequence</text><g><title>su</title><rect fill="#000000" fill-opacity="0.00000" height="313.1055" width="8" x="14.5" y="118.9766"/><line style="stroke:#181818;stroke-width:0.5;stroke-dasharray:5,5;" x1="18" x2="18" y1="118.9766" y2="432.082"/></g><g><title>Core</title><rect fill="#000000" fill-opacity="0.00000" height="313.1055" width="8" x="257.7354" y="118.9766"/><line style="stroke:#181818;stroke-width:0.5;stroke-dasharray:5,5;" x1="260.8281" x2="260.8281" y1="118.9766" y2="432.082"/></g><g><title>StartupManager</title><rect fill="#000000" fill-opacity="0.00000" height="313.1055" width="8" x="428.8677" y="118.9766"/><line style="stroke:#181818;stroke-width:0.5;stroke-dasharray:5,5;" x1="432.1475" x2="432.1475" y1="118.9766" y2="432.082"/></g><g><title>Argon2</title><rect fill="#000000" fill-opacity="0.00000" height="313.1055" width="8" x="569.4995" y="118.9766"/><line style="stroke:#181818;stroke-width:0.5;stroke-dasharray:5,5;" x1="573.3706" x2="573.3706" y1="118.9766" y2="432.082"/></g><g><title>DataService</title><rect fill="#000000" fill-opacity="0.00000" height="313.1055" width="8" x="657.8872" y="118.9766"/><line style="stroke:#181818;stroke-width:0.5;stroke-dasharray:5,5;" x1="661.6284" x2="661.6284" y1="118.9766" y2="432.082"/></g><g><title>LibSQL</title><rect fill="#000000" fill-opacity="0.00000" height="313.1055" width="8" x="787.9946" y="118.9766"/><line style="stroke:#181818;stroke-width:0.5;stroke-dasharray:5,5;" x1="791.8926" x2="791.8926" y1="118.9766" y2="432.082"/></g><g><title>RequestManager</title><rect fill="#000000" fill-opacity="0.00000" height="313.1055" width="8" x="891.4932" y="118.9766"/><line style="stroke:#181818;stroke-width:0.5;stroke-dasharray:5,5;" x1="895.0967" x2="895.0967" y1="118.9766" y2="432.082"/></g><g class="participant participant-head" data-participant="2"><text fill="#000000" font-family="sans-serif" font-size="14" lengthAdjust="spacing" textLength="15.8252" x="7.5874" y="116.0234">su</text><ellipse cx="18.5" cy="50.9883" fill="#E2E2F0" rx="8" ry="8" style="stroke:#181818;stroke-width:0.5;"/><path d="M18.5,58.9883 L18.5,85.9883 M5.5,66.9883 L31.5,66.9883 M18.5,85.9883 L5.5,100.9883 M18.5,85.9883 L31.5,100.9883" fill="none" style="stroke:#181818;stroke-width:0.5;"/></g><g class="participant participant-tail" data-participant="2"><text fill="#000000" font-family="sans-serif" font-size="14" lengthAdjust="spacing" textLength="15.8252" x="7.5874" y="444.6172">su</text><ellipse cx="18.5" cy="456.0703" fill="#E2E2F0" rx="8" ry="8" style="stroke:#181818;stroke-width:0.5;"/><path d="M18.5,464.0703 L18.5,491.0703 M5.5,472.0703 L31.5,472.0703 M18.5,491.0703 L5.5,506.0703 M18.5,491.0703 L31.5,506.0703" fill="none" style="stroke:#181818;stroke-width:0.5;"/></g><g class="participant participant-head" data-participant="5"><rect fill="#E2E2F0" height="30.4883" rx="2.5" ry="2.5" style="stroke:#181818;stroke-width:0.5;" width="45.8145" x="238.8281" y="87.4883"/><text fill="#000000" font-family="sans-serif" font-size="14" lengthAdjust="spacing" textLength="31.8145" x="245.8281" y="108.0234">Core</text></g><g class="participant participant-tail" data-participant="5"><rect fill="#E2E2F0" height="30.4883" rx="2.5" ry="2.5" style="stroke:#181818;stroke-width:0.5;" width="45.8145" x="238.8281" y="431.082"/><text fill="#000000" font-family="sans-serif" font-size="14" lengthAdjust="spacing" textLength="31.8145" x="245.8281" y="451.6172">Core</text></g><g class="participant participant-head" data-participant="11"><rect fill="#E2E2F0" height="30.4883" rx="2.5" ry="2.5" style="stroke:#181818;stroke-width:0.5;" width="121.4404" x="372.1475" y="87.4883"/><text fill="#000000" font-family="sans-serif" font-size="14" lengthAdjust="spacing" textLength="107.4404" x="379.1475" y="108.0234">StartupManager</text></g><g class="participant participant-tail" data-participant="11"><rect fill="#E2E2F0" height="30.4883" rx="2.5" ry="2.5" style="stroke:#181818;stroke-width:0.5;" width="121.4404" x="372.1475" y="431.082"/><text fill="#000000" font-family="sans-serif" font-size="14" lengthAdjust="spacing" textLength="107.4404" x="379.1475" y="451.6172">StartupManager</text></g><g class="participant participant-head" data-participant="17"><rect fill="#E2E2F0" height="30.4883" rx="2.5" ry="2.5" style="stroke:#181818;stroke-width:0.5;" width="64.2578" x="541.3706" y="87.4883"/><text fill="#000000" font-family="sans-serif" font-size="14" lengthAdjust="spacing" textLength="50.2578" x="548.3706" y="108.0234">Argon2</text></g><g class="participant participant-tail" data-participant="17"><rect fill="#E2E2F0" height="30.4883" rx="2.5" ry="2.5" style="stroke:#181818;stroke-width:0.5;" width="64.2578" x="541.3706" y="431.082"/><text fill="#000000" font-family="sans-serif" font-size="14" lengthAdjust="spacing" textLength="50.2578" x="548.3706" y="451.6172">Argon2</text></g><g class="participant participant-head" data-participant="10"><rect fill="#E2E2F0" height="30.4883" rx="2.5" ry="2.5" style="stroke:#181818;stroke-width:0.5;" width="92.5176" x="615.6284" y="87.4883"/><text fill="#000000" font-family="sans-serif" font-size="14" lengthAdjust="spacing" textLength="78.5176" x="622.6284" y="108.0234">DataService</text></g><g class="participant participant-tail" data-participant="10"><rect fill="#E2E2F0" height="30.4883" rx="2.5" ry="2.5" style="stroke:#181818;stroke-width:0.5;" width="92.5176" x="615.6284" y="431.082"/><text fill="#000000" font-family="sans-serif" font-size="14" lengthAdjust="spacing" textLength="78.5176" x="622.6284" y="451.6172">DataService</text></g><g class="participant participant-head" data-participant="49"><rect fill="#E2E2F0" height="30.4883" rx="2.5" ry="2.5" style="stroke:#181818;stroke-width:0.5;" width="60.2041" x="761.8926" y="87.4883"/><text fill="#000000" font-family="sans-serif" font-size="14" lengthAdjust="spacing" textLength="46.2041" x="768.8926" y="108.0234">LibSQL</text></g><g class="participant participant-tail" data-participant="49"><rect fill="#E2E2F0" height="30.4883" rx="2.5" ry="2.5" style="stroke:#181818;stroke-width:0.5;" width="60.2041" x="761.8926" y="431.082"/><text fill="#000000" font-family="sans-serif" font-size="14" lengthAdjust="spacing" textLength="46.2041" x="768.8926" y="451.6172">LibSQL</text></g><g class="participant participant-head" data-participant="12"><rect fill="#E2E2F0" height="30.4883" rx="2.5" ry="2.5" style="stroke:#181818;stroke-width:0.5;" width="126.793" x="832.0967" y="87.4883"/><text fill="#000000" font-family="sans-serif" font-size="14" lengthAdjust="spacing" textLength="112.793" x="839.0967" y="108.0234">RequestManager</text></g><g class="participant participant-tail" data-participant="12"><rect fill="#E2E2F0" height="30.4883" rx="2.5" ry="2.5" style="stroke:#181818;stroke-width:0.5;" width="126.793" x="832.0967" y="431.082"/><text fill="#000000" font-family="sans-serif" font-size="14" lengthAdjust="spacing" textLength="112.793" x="839.0967" y="451.6172">RequestManager</text></g><g class="message" data-participant-1="2" data-participant-2="5"><polygon fill="#181818" points="249.7354,146.2871,259.7354,150.2871,249.7354,154.2871,253.7354,150.2871" style="stroke:#181818;stroke-width:1;"/><line style="stroke:#181818;stroke-width:1;" x1="18.5" x2="255.7354" y1="150.2871" y2="150.2871"/><text fill="#000000" font-family="sans-serif" font-size="13" lengthAdjust="spacing" textLength="219.2354" x="25.5" y="145.5449">starts with configuration password</text></g><g class="message" data-participant-1="5" data-participant-2="11"><polygon fill="#181818" points="420.8677,175.5977,430.8677,179.5977,420.8677,183.5977,424.8677,179.5977" style="stroke:#181818;stroke-width:1;"/><line style="stroke:#181818;stroke-width:1;" x1="261.7354" x2="426.8677" y1="179.5977" y2="179.5977"/><text fill="#000000" font-family="sans-serif" font-size="13" lengthAdjust="spacing" textLength="147.1323" x="268.7354" y="174.8555">check for configuration</text></g><g class="message" data-participant-1="11" data-participant-2="17"><polygon fill="#181818" points="561.4995,204.9082,571.4995,208.9082,561.4995,212.9082,565.4995,208.9082" style="stroke:#181818;stroke-width:1;"/><line style="stroke:#181818;stroke-width:1;" x1="432.8677" x2="567.4995" y1="208.9082" y2="208.9082"/><text fill="#000000" font-family="sans-serif" font-size="13" lengthAdjust="spacing" textLength="116.6318" x="439.8677" y="204.166">read configuration</text></g><g class="message" data-participant-1="5" data-participant-2="11"><polygon fill="#181818" points="420.8677,234.2188,430.8677,238.2188,420.8677,242.2188,424.8677,238.2188" style="stroke:#181818;stroke-width:1;"/><line style="stroke:#181818;stroke-width:1;" x1="261.7354" x2="426.8677" y1="238.2188" y2="238.2188"/><text fill="#000000" font-family="sans-serif" font-size="13" lengthAdjust="spacing" textLength="137.5981" x="268.7354" y="233.4766">validate configuration</text></g><g class="message" data-participant-1="11" data-participant-2="10"><polygon fill="#181818" points="649.8872,263.5293,659.8872,267.5293,649.8872,271.5293,653.8872,267.5293" style="stroke:#181818;stroke-width:1;"/><line style="stroke:#181818;stroke-width:1;" x1="432.8677" x2="655.8872" y1="267.5293" y2="267.5293"/><text fill="#000000" font-family="sans-serif" font-size="13" lengthAdjust="spacing" textLength="112.3027" x="439.8677" y="262.7871">test configuration</text></g><g class="message" data-participant-1="10" data-participant-2="49"><polygon fill="#181818" points="779.9946,292.8398,789.9946,296.8398,779.9946,300.8398,783.9946,296.8398" style="stroke:#181818;stroke-width:1;"/><line style="stroke:#181818;stroke-width:1;" x1="661.8872" x2="785.9946" y1="296.8398" y2="296.8398"/><text fill="#000000" font-family="sans-serif" font-size="13" lengthAdjust="spacing" textLength="97.062" x="668.8872" y="292.0977">test connection</text></g><g class="message" data-participant-1="10" data-participant-2="49"><polygon fill="#181818" points="779.9946,322.1504,789.9946,326.1504,779.9946,330.1504,783.9946,326.1504" style="stroke:#181818;stroke-width:1;"/><line style="stroke:#181818;stroke-width:1;" x1="661.8872" x2="785.9946" y1="326.1504" y2="326.1504"/><text fill="#000000" font-family="sans-serif" font-size="13" lengthAdjust="spacing" textLength="106.1074" x="668.8872" y="321.4082">read site options</text></g><g class="message" data-participant-1="5" data-participant-2="11"><polygon fill="#181818" points="420.8677,351.4609,430.8677,355.4609,420.8677,359.4609,424.8677,355.4609" style="stroke:#181818;stroke-width:1;"/><line style="stroke:#181818;stroke-width:1;" x1="261.7354" x2="426.8677" y1="355.4609" y2="355.4609"/><text fill="#000000" font-family="sans-serif" font-size="13" lengthAdjust="spacing" textLength="127.0737" x="268.7354" y="350.7188">validate site options</text></g><g class="message" data-participant-1="5" data-participant-2="12"><polygon fill="#181818" points="883.4932,380.7715,893.4932,384.7715,883.4932,388.7715,887.4932,384.7715" style="stroke:#181818;stroke-width:1;"/><line style="stroke:#181818;stroke-width:1;" x1="261.7354" x2="889.4932" y1="384.7715" y2="384.7715"/><text fill="#000000" font-family="sans-serif" font-size="13" lengthAdjust="spacing" textLength="133.5737" x="268.7354" y="380.0293">state change - Ready</text></g><g class="message" data-participant-1="5" data-participant-2="2"><polygon fill="#181818" points="29.5,410.082,19.5,414.082,29.5,418.082,25.5,414.082" style="stroke:#181818;stroke-width:1;"/><line style="stroke:#181818;stroke-width:1;" x1="23.5" x2="260.7354" y1="414.082" y2="414.082"/><text fill="#000000" font-family="sans-serif" font-size="13" lengthAdjust="spacing" textLength="124.0522" x="35.5" y="409.3398">successfully started</text></g><!--SRC=[RP2nReCm48PtFyKfEnAWe2WTAbNfc0mDG-UhES0AibsVdIXlNnigjKQi_hxxx_TvvIU2pr6n9NUwj4NhqVbWYvQ-0sb9Gg3qni6EmmwGeHOs2aegYzh3xcGSpUzD_luRSq6D0xdPgAfSUNE3qVM23ZbwHuyjkRkIItXLvloiljgFyupsnnnTKs_ssU9QY1gALsZW1JWLOtWeFu8qkbT3SEYLqM2H-M5S9vhaLbMKvKZo1dtyVgQA29DoY8eZx5RqR_wEa-hGq_Pu6GqVkwvfcUZ- -8zgaciqxsKLiurDZBVMRl1wkK7gDA8U20gungZdWcSQf2JcFapJSpaNTJy0]--></g></svg>